<?xml version="1.0" encoding="UTF-8"?>
<svg xmlns="http://www.w3.org/2000/svg"
     xmlns:xlink="http://www.w3.org/1999/xlink"
     version="1.1"
     viewBox="0 0 1400.7000000000116 724.4999999990687"
     width="2000px"
     height="1500px"
     preserveAspectRatio="none"
     id="svgroot">
   <style>
        .polygon {
          filter: url('#hand-drawn');
        }

        .rail {
          filter: drop-shadow(7px 7px 2px black);
        }

        .filtered{
          filter: url(#filter);
          -webkit-filter: url(#filter);
          fill: #9673FF;
          color: #9673FF;
          font-family: 'Alfa Slab One', cursive;
          text-transform: uppercase;
          font-size: 40px;
        }

        .way {
          filter: url(#hand-drawn);
        }

      </style>
   <filter id="hand-drawn">
      <feTurbulence type="turbulence"
                    baseFrequency="0.02"
                    numOctaves="1"
                    result="turbulence"/>
      <feDisplacementMap in2="turbulence"
                         in="SourceGraphic"
                         scale="4"
                         xChannelSelector="R"
                         yChannelSelector="G"/>
   </filter>
   <rect x="0"
         y="0"
         width="1400.7000000000116"
         height="724.4999999990687"
         fill="#571845"/>


      // roads
      <path class="way"
         id="ID3878216"
         fill="none"
         stroke="#c70039"
         stroke-width="8px"
         stroke-linejoin="round"
         stroke-linecap="round"
         d="M1371.2400000000198,278.76999999955297 L1370.9100000000035,277.6399999996647 L1369.3500000000058,272.3199999993667 L1364.8499999999767,264.429999999702 L1343.530000000028,223.55999999959022 L1334.4200000000128,204.60999999940395 L1319.0500000000175,171.69999999925494 L1298.0200000000186,127.04999999981374 L1255.7200000000303,46.8199999993667 L1252.2399999999907,41.09999999962747 L1248.9799999999814,34.89999999944121 L1248.3800000000047,31.229999999515712 L1247.539999999979,27.84999999962747"/>
   <path class="way"
         id="ID3878220"
         fill="none"
         stroke="#c70039"
         stroke-width="5px"
         stroke-linejoin="round"
         stroke-linecap="round"
         d="M1111.3699999999953,673.1499999994412 L1107.9200000000128,672.9599999999627 L1104.1499999999942,674.320000000298 L1092.1000000000058,682.6200000001118 L1064.390000000014,701.6900000004098 L1050.820000000007,710.2799999993294 L1015.5099999999802,730.9499999992549 L954.1299999999756,767.1299999998882 L948.75,770.0800000000745 L893.9500000000116,802.7400000002235 L835.2200000000012,839.4599999999627 L830.1300000000338,843.660000000149 L824.0699999999779,848.0800000000745"/>
   <path class="way"
         id="ID4013274"
         fill="none"
         stroke="#c70039"
         stroke-width="5px"
         stroke-linejoin="round"
         stroke-linecap="round"
         d="M1395.9300000000221,289.7400000002235 L1424.4800000000105,282.6699999999255 L1433.359999999986,280.339999999851 L1445.4200000000128,277.179999999702 L1463.0499999999884,271.9799999995157 L1471.0900000000256,269.0599999995902 L1478.2600000000093,265.6100000003353 L1488.460000000021,260.45000000018626 L1493.320000000007,257.5099999997765 L1497.6499999999942,254.50999999977648 L1504.3699999999953,249.52999999932945"/>
   <path class="way"
         id="ID4013279"
         fill="none"
         stroke="#c70039"
         stroke-width="5px"
         stroke-linejoin="round"
         stroke-linecap="round"
         d="M1211.7200000000012,152.45000000018626 L1193.960000000021,87.37999999988824 L1194.9700000000012,80.51999999955297 L1255.7200000000303,46.8199999993667"/>
   <path class="way"
         id="ID4013281"
         fill="none"
         stroke="#c70039"
         stroke-width="5px"
         stroke-linejoin="round"
         stroke-linecap="round"
         d="M990.640000000014,283.84999999962747 L995.9300000000221,280.5 L1037.1600000000035,261.87000000011176 L1079.2399999999907,242.52999999932945 L1116.289999999979,222.05999999959022 L1148.039999999979,202.1499999994412 L1161.9800000000105,190.5 L1198.0600000000268,157.839999999851 L1211.7200000000012,152.45000000018626"/>
   <path class="way"
         id="ID4013282"
         fill="none"
         stroke="#c70039"
         stroke-width="8px"
         stroke-linejoin="round"
         stroke-linecap="round"
         d="M1342.4800000000105,487.3300000000745 L1344.4400000000023,473.0099999997765 L1355.4599999999919,401.54000000003725 L1356.3299999999872,394.62999999988824 L1361.5200000000186,353.20000000018626 L1369.6300000000338,304.2399999992922 L1371.1800000000221,297.87999999988824"/>
   <path class="way"
         id="ID4013285"
         fill="none"
         stroke="#c70039"
         stroke-width="5px"
         stroke-linejoin="round"
         stroke-linecap="round"
         d="M397.8299999999872,704.8499999996275 L394.94999999998254,698.5 L394.5100000000093,695.6399999996647 L396.54000000000815,690.7900000000373 L411.0199999999895,664.6500000003725 L417.5,655.609999999404 L490.8300000000163,546.0499999998137 L500.070000000007,531.5299999993294 L503.679999999993,527 L508.04999999998836,523.0499999998137"/>
   <path class="way"
         id="ID4013287"
         fill="none"
         stroke="#c70039"
         stroke-width="5px"
         stroke-linejoin="round"
         stroke-linecap="round"
         d="M1111.3699999999953,673.1499999994412 L1116.25,674.3099999995902 L1161.890000000014,698.359999999404 L1169.8500000000058,702.660000000149 L1230.6800000000221,733.5499999998137 L1248.500000000029,743.0699999993667 L1290.6300000000047,764.0400000000373 L1351.890000000014,795.2400000002235 L1417.3100000000268,829.2199999997392"/>
   <path class="way"
         id="ID4076205"
         fill="none"
         stroke="#c70039"
         stroke-width="5px"
         stroke-linejoin="round"
         stroke-linecap="round"
         d="M577.4700000000303,535.2199999997392 L593.6700000000128,534.6699999999255 L614.6300000000047,533.4099999992177 L624.4500000000116,531.5999999996275 L632.2300000000105,528.8499999996275 L645.4500000000116,520.519999999553 L654.9400000000314,517.9699999997392 L675.7600000000093,514.25 L716.3399999999965,508.3099999995902 L774.2400000000198,500.26999999955297 L812.2399999999907,496.71999999973923 L818.5299999999988,496.3300000000745 L845.1199999999953,498.589999999851 L851.8800000000047,498.20999999996275 L859.5099999999802,496.4199999999255 L950.5499999999884,473.6100000003353 L965.3000000000175,467.34999999962747 L978.6499999999942,460.910000000149"/>
   <path class="way"
         id="ID4081681"
         fill="none"
         stroke="#c70039"
         stroke-width="5px"
         stroke-linejoin="round"
         stroke-linecap="round"
         d="M491.54999999998836,500.6100000003353 L493.8299999999872,500.43999999947846 L498.11999999999534,498.84999999962747 L619.0299999999988,414.62000000011176 L707.1999999999825,351.0599999995902 L819.4100000000326,286.3500000005588 L906.609999999986,232.20999999996275"/>
   <path class="way"
         id="ID4081682"
         fill="none"
         stroke="#c70039"
         stroke-width="5px"
         stroke-linejoin="round"
         stroke-linecap="round"
         d="M449.9799999999814,474.1699999999255 L456.5000000000291,469.410000000149 L473.5,456.70000000018626 L566.5299999999988,384.29000000003725 L568.8500000000058,382.76999999955297 L662.9699999999721,315.68999999947846 L767.2600000000093,250.71999999973923 L821.210000000021,219.75 L853.8299999999872,195.52999999932945 L900.9700000000012,172.18999999947846 L962.4200000000128,136.57000000029802"/>
   <path class="way"
         id="ID4081688"
         fill="none"
         stroke="#c70039"
         stroke-width="5px"
         stroke-linejoin="round"
         stroke-linecap="round"
         d="M321.6899999999732,87.25 L386.4800000000105,111.20999999996275 L534.4400000000023,169.12000000011176 L572.4800000000105,178.54000000003725 L662.7200000000012,157.44000000040978 L679.75,149.65000000037253 L745.7200000000012,97.76999999955297 L807.6300000000338,48.19000000040978"/>
   <path class="way"
         id="ID4081689"
         fill="none"
         stroke="#c70039"
         stroke-width="5px"
         stroke-linejoin="round"
         stroke-linecap="round"
         d="M-46.670000000012806,115.74000000022352 L-7.129999999975553,139.29000000003725 L1.2100000000209548,143.8999999994412 L48.329999999987194,171.74000000022352"/>
   <path class="way"
         id="ID4081701"
         fill="none"
         stroke="#c70039"
         stroke-width="5px"
         stroke-linejoin="round"
         stroke-linecap="round"
         d="M23.29000000000815,248.57000000029802 L29.45999999999185,245.11000000033528"/>
   <path class="way"
         id="ID4315931"
         fill="none"
         stroke="#c70039"
         stroke-width="5px"
         stroke-linejoin="round"
         stroke-linecap="round"
         d="M-170.80999999996857,444.0099999997765 L-154.6599999999744,451.3899999996647 L60.30999999999767,577.089999999851"/>
   <path class="way"
         id="ID4315932"
         fill="none"
         stroke="#c70039"
         stroke-width="5px"
         stroke-linejoin="round"
         stroke-linecap="round"
         d="M-101.13999999998487,703.5400000000373 L-21.42999999996391,641.1399999996647 L16.54000000000815,612.1299999998882 L51.49000000001979,583.7399999992922 L60.30999999999767,577.089999999851 L98.52999999999884,548.3799999998882"/>
   <path class="way"
         id="ID4315934"
         fill="none"
         stroke="#c70039"
         stroke-width="5px"
         stroke-linejoin="round"
         stroke-linecap="round"
         d="M16.54000000000815,612.1299999998882 L-202.35999999998603,483.6399999996647"/>
   <path class="way"
         id="ID4315935"
         fill="none"
         stroke="#c70039"
         stroke-width="5px"
         stroke-linejoin="round"
         stroke-linecap="round"
         d="M16.54000000000815,612.1299999998882 L209.0100000000093,720.6899999994785"/>
   <path class="way"
         id="ID4329796"
         fill="none"
         stroke="#c70039"
         stroke-width="5px"
         stroke-linejoin="round"
         stroke-linecap="round"
         d="M804.5,40.30999999959022 L798.5299999999988,40.119999999180436 L784.0500000000175,36.44000000040978 L701.8500000000058,6.4500000001862645 L611.0299999999988,-25.330000000074506 L444.79000000000815,-87.71999999973923"/>
   <path class="way"
         id="ID4329799"
         fill="none"
         stroke="#c70039"
         stroke-width="5px"
         stroke-linejoin="round"
         stroke-linecap="round"
         d="M701.8500000000058,6.4500000001862645 L711.2200000000303,-3.4100000001490116 L716.5200000000186,-8.170000000856817 L810.5799999999872,-62.52000000048429 L931.4800000000105,-130.32000000029802"/>
   <path class="way"
         id="ID4329802"
         fill="none"
         stroke="#c70039"
         stroke-width="5px"
         stroke-linejoin="round"
         stroke-linecap="round"
         d="M264.20000000001164,145.50999999977648 L321.6899999999732,87.25 L319.69000000003143,66.26999999955297 L321.70999999999185,56.32000000029802 L324.04999999998836,49.549999999813735 L329.4100000000035,39.860000000335276 L336.79000000000815,30.31000000052154 L345.6700000000128,22.229999999515712 L411.0999999999767,-34.169999999925494 L444.79000000000815,-87.71999999973923 L452.12999999997555,-99.19000000040978 L469.7399999999907,-130.26999999955297 L478.0800000000163,-173.160000000149 L485.38000000000466,-239.9199999999255 L485.6600000000035,-242.51999999955297 L499.02999999999884,-300.839999999851 L509.45000000001164,-362.79999999981374"/>
   <path class="way"
         id="ID4329803"
         fill="none"
         stroke="#c70039"
         stroke-width="5px"
         stroke-linejoin="round"
         stroke-linecap="round"
         d="M745.7200000000012,97.76999999955297 L411.0999999999767,-34.169999999925494"/>
   <path class="way"
         id="ID4329804"
         fill="none"
         stroke="#c70039"
         stroke-width="5px"
         stroke-linejoin="round"
         stroke-linecap="round"
         d="M679.75,149.65000000037253 L345.6700000000128,22.229999999515712"/>
   <path class="way"
         id="ID4345226"
         fill="none"
         stroke="#c70039"
         stroke-width="5px"
         stroke-linejoin="round"
         stroke-linecap="round"
         d="M119.09999999997672,722.7599999997765 L117.38999999998487,727.2199999997392 L92.91000000000349,748.429999999702 L50.220000000001164,782.7499999990687 L22.050000000017462,805.3600000003353 L9.760000000009313,814.1199999991804 L-107.95999999999185,882.089999999851 L-244.62000000002445,976.7999999998137"/>
   <path class="way"
         id="ID4374866"
         fill="none"
         stroke="#c70039"
         stroke-width="5px"
         stroke-linejoin="round"
         stroke-linecap="round"
         d="M491.54999999998836,500.6100000003353 L493.85999999998603,503.75 L508.04999999998836,523.0499999998137"/>
   <path class="way"
         id="ID4453791"
         fill="none"
         stroke="#c70039"
         stroke-width="5px"
         stroke-linejoin="round"
         stroke-linecap="round"
         d="M508.04999999998836,523.0499999998137 L543.960000000021,505.9899999992922 L595.8299999999872,481.9099999992177"/>
   <path class="way"
         id="ID4608658"
         fill="none"
         stroke="#c70039"
         stroke-width="5px"
         stroke-linejoin="round"
         stroke-linecap="round"
         d="M534.4400000000023,169.12000000011176 L491.2599999999802,225.8300000000745"/>
   <path class="way"
         id="ID4745130"
         fill="none"
         stroke="#c70039"
         stroke-width="5px"
         stroke-linejoin="round"
         stroke-linecap="round"
         d="M272.3500000000058,703.359999999404 L275.5900000000256,699.3099999995902 L273.10999999998603,690.9999999990687 L258.9799999999814,667.2999999998137 L244.21999999997206,641.089999999851 L231.2600000000093,624.679999999702 L212.44000000000233,611.75 L124.66000000000349,564.0599999995902 L98.52999999999884,548.3799999998882"/>
   <path class="way"
         id="ID4745132"
         fill="none"
         stroke="#c70039"
         stroke-width="5px"
         stroke-linejoin="round"
         stroke-linecap="round"
         d="M143.53000000002794,513.910000000149 L141.38000000003376,515.5499999998137 L119.52999999999884,532.3300000000745 L106.47000000000116,542.929999999702"/>
   <path class="way"
         id="ID4827647"
         fill="none"
         stroke="#c70039"
         stroke-width="5px"
         stroke-linejoin="round"
         stroke-linecap="round"
         d="M1462.4900000000198,69.15000000037253 L1386.9200000000128,83.8999999994412 L1380.3699999999953,86.84999999962747 L1374.1299999999756,90.35999999940395 L1368.8299999999872,93.91000000014901 L1364.8600000000151,97.46999999973923 L1359.9800000000105,104.06000000052154 L1356.6499999999942,110.6499999994412 L1355.3999999999942,115.73000000044703 L1298.0200000000186,127.04999999981374"/>
   <path class="way"
         id="ID4827705"
         fill="none"
         stroke="#c70039"
         stroke-width="5px"
         stroke-linejoin="round"
         stroke-linecap="round"
         d="M1037.1600000000035,261.87000000011176 L1039.1000000000058,238 L1054.609999999986,141.6599999992177 L1073.2600000000093,132.92999999970198 L1075.2400000000198,131.9199999999255 L1165.0499999999884,85.8999999994412"/>
   <path class="way"
         id="ID4832789"
         fill="none"
         stroke="#c70039"
         stroke-width="5px"
         stroke-linejoin="round"
         stroke-linecap="round"
         d="M595.8299999999872,481.9099999992177 L668.0800000000163,463.79999999981374 L785.6900000000023,439.070000000298 L911.1999999999825,405.71999999973923"/>
   <path class="way"
         id="ID4832791"
         fill="none"
         stroke="#c70039"
         stroke-width="5px"
         stroke-linejoin="round"
         stroke-linecap="round"
         d="M1361.5200000000186,353.20000000018626 L1315.1300000000047,353.5599999995902 L1174.9799999999814,396.7599999997765 L1171.6100000000151,397.79999999981374"/>
   <path class="way"
         id="ID4832792"
         fill="none"
         stroke="#c70039"
         stroke-width="5px"
         stroke-linejoin="round"
         stroke-linecap="round"
         d="M1369.3500000000058,272.3199999993667 L1321.4500000000116,289.76999999955297 L1265.7699999999895,309.25 L1162.5799999999872,345.79000000003725 L1096.9700000000012,373.5599999995902 L1039.4899999999907,400.54999999981374 L1033.0500000000175,405.04000000003725"/>
   <path class="way"
         id="ID4832795"
         fill="none"
         stroke="#c70039"
         stroke-width="5px"
         stroke-linejoin="round"
         stroke-linecap="round"
         d="M1033.0500000000175,405.04000000003725 L1036.3800000000338,405.52999999932945 L1049.25,416.3300000000745 L1051.5899999999965,418.54999999981374 L1055.2799999999988,422.04999999981374 L1056.9199999999837,423.84999999962747 L1086.2999999999884,456.0699999993667 L1111.2699999999895,483.45999999996275 L1131.8899999999849,511.98000000044703 L1158.5599999999977,571.1699999999255"/>
   <path class="way"
         id="ID4832797"
         fill="none"
         stroke="#c70039"
         stroke-width="5px"
         stroke-linejoin="round"
         stroke-linecap="round"
         d="M543.960000000021,505.9899999992922 L577.4700000000303,535.2199999997392 L610.960000000021,575.8499999996275 L651.2699999999895,624.5099999997765"/>
   <path class="way"
         id="ID8140981"
         fill="none"
         stroke="#c70039"
         stroke-width="5px"
         stroke-linejoin="round"
         stroke-linecap="round"
         d="M1163.6900000000023,26.34999999962747 L1140.7700000000186,-29.75"/>
   <path class="way"
         id="ID8172816"
         fill="none"
         stroke="#c70039"
         stroke-width="5px"
         stroke-linejoin="round"
         stroke-linecap="round"
         d="M1327.5299999999988,507 L1337.9500000000116,528.2599999997765 L1353.2799999999988,548.9399999994785 L1381.460000000021,569.7400000002235 L1390.7400000000198,574.5400000000373 L1402.1000000000058,578.9699999997392 L1428.6300000000047,585.769999999553 L1457.2999999999884,591.4099999992177 L1468.7200000000012,594.730000000447 L1491.3100000000268,605.8600000003353 L1512.0799999999872,617.8199999993667"/>
   <path class="way"
         id="ID8302427"
         fill="none"
         stroke="#c70039"
         stroke-width="5px"
         stroke-linejoin="round"
         stroke-linecap="round"
         d="M561.6600000000035,748.6900000004098 L656.2399999999907,705.2399999992922"/>
   <path class="way"
         id="ID16196874"
         fill="none"
         stroke="#c70039"
         stroke-width="5px"
         stroke-linejoin="round"
         stroke-linecap="round"
         d="M1169.8500000000058,702.660000000149 L1327.3499999999767,584.0800000000745"/>
   <path class="way"
         id="ID16286879"
         fill="none"
         stroke="#c70039"
         stroke-width="5px"
         stroke-linejoin="round"
         stroke-linecap="round"
         d="M807.6300000000338,48.19000000040978 L804.5,40.30999999959022 L804.929999999993,34.889999999664724 L808.1300000000047,29.40000000037253 L879.2300000000105,-15.379999999888241 L1009.7900000000373,-89.0800000000745 L1015.4900000000198,-92.40000000037253 L1081.0599999999977,-130.51999999955297 L1119.850000000035,-151.07000000029802"/>
   <path class="way"
         id="ID19084148"
         fill="none"
         stroke="#c70039"
         stroke-width="5px"
         stroke-linejoin="round"
         stroke-linecap="round"
         d="M1111.2699999999895,483.45999999996275 L1006.1499999999942,501.5599999995902"/>
   <path class="way"
         id="ID19084181"
         fill="none"
         stroke="#c70039"
         stroke-width="5px"
         stroke-linejoin="round"
         stroke-linecap="round"
         d="M1111.2699999999895,483.45999999996275 L1198.2000000000116,469.8500000005588"/>
   <path class="way"
         id="ID19084308"
         fill="none"
         stroke="#c70039"
         stroke-width="5px"
         stroke-linejoin="round"
         stroke-linecap="round"
         d="M1319.4199999999837,510.5099999997765 L1263.1999999999825,461.429999999702"/>
   <path class="way"
         id="ID19084463"
         fill="none"
         stroke="#c70039"
         stroke-width="5px"
         stroke-linejoin="round"
         stroke-linecap="round"
         d="M1131.8899999999849,511.98000000044703 L1222.0400000000373,497.35999999940395"/>
   <path class="way"
         id="ID19084524"
         fill="none"
         stroke="#c70039"
         stroke-width="5px"
         stroke-linejoin="round"
         stroke-linecap="round"
         d="M808.9700000000012,613.2399999992922 L806.0300000000279,600.1699999999255 L800.5899999999965,586.9699999997392 L791.9899999999907,567.1200000001118 L781.5000000000291,542.910000000149"/>
   <path class="way"
         id="ID19084822"
         fill="none"
         stroke="#c70039"
         stroke-width="5px"
         stroke-linejoin="round"
         stroke-linecap="round"
         d="M978.5300000000279,513.9199999999255 L990.6499999999942,540.7099999999627 L997.3600000000151,556.160000000149 L1007.890000000014,579.9099999992177 L1019.1900000000023,603.8699999991804"/>
   <path class="way"
         id="ID19084845"
         fill="none"
         stroke="#c70039"
         stroke-width="5px"
         stroke-linejoin="round"
         stroke-linecap="round"
         d="M791.9899999999907,567.1200000001118 L873.4400000000023,552.6899999994785 L978.5300000000279,513.9199999999255"/>
   <path class="way"
         id="ID19084860"
         fill="none"
         stroke="#c70039"
         stroke-width="5px"
         stroke-linejoin="round"
         stroke-linecap="round"
         d="M995.3300000000163,507.2400000002235 L978.5300000000279,513.9199999999255"/>
   <path class="way"
         id="ID24239293"
         fill="none"
         stroke="#c70039"
         stroke-width="5px"
         stroke-linejoin="round"
         stroke-linecap="round"
         d="M75.31000000002678,697.9899999992922 L41.38000000000466,721"/>
   <path class="way"
         id="ID24359420"
         fill="none"
         stroke="#c70039"
         stroke-width="5px"
         stroke-linejoin="round"
         stroke-linecap="round"
         d="M493.429999999993,682.6899999994785 L561.6600000000035,748.6900000004098 L600.8400000000256,787.3300000000745 L610.390000000014,797.2399999992922 L619.9900000000198,806.7999999998137 L681.1499999999942,865.4900000002235 L716.5500000000175,902.2999999998137"/>
   <path class="way"
         id="ID24396140"
         fill="none"
         stroke="#c70039"
         stroke-width="5px"
         stroke-linejoin="round"
         stroke-linecap="round"
         d="M41.38000000000466,721 L-3.120000000024447,753.5699999993667"/>
   <path class="way"
         id="ID25874505"
         fill="none"
         stroke="#c70039"
         stroke-width="5px"
         stroke-linejoin="round"
         stroke-linecap="round"
         d="M1340.570000000007,649.4199999999255 L1230.6800000000221,733.5499999998137"/>
   <path class="way"
         id="ID25974236"
         fill="none"
         stroke="#c70039"
         stroke-width="5px"
         stroke-linejoin="round"
         stroke-linecap="round"
         d="M845.5800000000163,685.4099999992177 L954.1299999999756,767.1299999998882"/>
   <path class="way"
         id="ID26114790"
         fill="none"
         stroke="#c70039"
         stroke-width="5px"
         stroke-linejoin="round"
         stroke-linecap="round"
         d="M198.62999999997555,122.9899999992922 L206.02000000001863,76.03000000026077 L221.38000000000466,36.79000000003725 L234.05999999999767,16.559999999590218 L254.02999999999884,-4.46000000089407 L268.44999999998254,-17.78000000026077 L334.53000000002794,-67.4300000006333 L373.9900000000198,-132.04999999981374 L394.9900000000198,-175.660000000149 L398.1700000000128,-200.24000000022352 L406.45000000001164,-264.45999999996275 L410.8999999999942,-340.96999999973923 L416.70000000001164,-378.2600000007078"/>
   <path class="way"
         id="ID26230163"
         fill="none"
         stroke="#c70039"
         stroke-width="5px"
         stroke-linejoin="round"
         stroke-linecap="round"
         d="M1377.4700000000303,297.679999999702 L1381.8700000000244,304.0800000000745 L1399.530000000028,337.839999999851"/>
   <path class="way"
         id="ID26230173"
         fill="none"
         stroke="#c70039"
         stroke-width="5px"
         stroke-linejoin="round"
         stroke-linecap="round"
         d="M1563.000000000029,293.59999999962747 L1399.530000000028,337.839999999851"/>
   <path class="way"
         id="ID30053153"
         fill="none"
         stroke="#c70039"
         stroke-width="5px"
         stroke-linejoin="round"
         stroke-linecap="round"
         d="M66.03000000002794,398.410000000149 L114.20999999999185,374.5099999997765 L157.01000000003842,359.78000000026077"/>
   <path class="way"
         id="ID30053169"
         fill="none"
         stroke="#c70039"
         stroke-width="5px"
         stroke-linejoin="round"
         stroke-linecap="round"
         d="M-76.1700000000128,297.87000000011176 L-7.3399999999965075,326.87000000011176 L32.61999999999534,347.2599999997765 L36.26000000000931,349.4799999995157 L48.70999999999185,357.339999999851"/>
   <path class="way"
         id="ID30053212"
         fill="none"
         stroke="#c70039"
         stroke-width="5px"
         stroke-linejoin="round"
         stroke-linecap="round"
         d="M32.61999999999534,347.2599999997765 L103.02000000001863,310.87999999988824"/>
   <path class="way"
         id="ID32512496"
         fill="none"
         stroke="#c70039"
         stroke-width="5px"
         stroke-linejoin="round"
         stroke-linecap="round"
         d="M39.529999999998836,260.62999999988824 L49.610000000015134,256.78000000026077 L57.0800000000163,255.25999999977648 L64.76999999998952,256.73000000044703 L138.70999999999185,271.570000000298 L206.9099999999744,285.8999999994412 L293.320000000007,309.09999999962747 L316.87000000002445,314.09999999962747 L354.1600000000035,320.820000000298 L386.9100000000035,322.1000000005588 L432.7400000000198,328.85999999940395 L444.1700000000128,329.7400000002235 L454.4200000000128,329.9199999999255 L466.97000000000116,329.76999999955297"/>
   <path class="way"
         id="ID32708173"
         fill="none"
         stroke="#c70039"
         stroke-width="5px"
         stroke-linejoin="round"
         stroke-linecap="round"
         d="M960.7200000000012,198.76999999955297 L906.609999999986,232.20999999996275"/>
   <path class="way"
         id="ID36781609"
         fill="none"
         stroke="#c70039"
         stroke-width="5px"
         stroke-linejoin="round"
         stroke-linecap="round"
         d="M1438.9499999999825,126.67999999970198 L1448.7400000000198,142.69999999925494 L1319.0500000000175,171.69999999925494"/>
   <path class="way"
         id="ID36781671"
         fill="none"
         stroke="#c70039"
         stroke-width="5px"
         stroke-linejoin="round"
         stroke-linecap="round"
         d="M1252.2399999999907,41.09999999962747 L1275.5599999999977,32.58999999985099 L1289.2399999999907,28.91000000014901 L1300.3699999999953,27.169999999925494 L1311.9099999999744,26.75 L1323.8399999999965,27.5 L1335.7799999999988,29.08999999985099 L1353.2200000000012,27.75 L1433.5100000000093,12.190000000409782 L1443.6499999999942,10.929999999701977"/>
   <path class="way"
         id="ID40797439"
         fill="none"
         stroke="#c70039"
         stroke-width="5px"
         stroke-linejoin="round"
         stroke-linecap="round"
         d="M1393.6200000000244,488.35999999940395 L1393.749999999971,486.29999999981374 L1394.609999999986,484.26999999955297 L1395.3499999999767,482.79000000003725 L1396.600000000035,481.34999999962747 L1398.3100000000268,480.0099999997765 L1400.9200000000128,478.839999999851 L1429.0499999999884,466.6399999996647 L1430.8600000000151,465.410000000149 L1432.4700000000012,464.1699999999255 L1433.4400000000023,462.839999999851 L1434.210000000021,461.4899999992922 L1436.390000000014,454.60999999940395 L1433.4300000000221,434.11999999918044 L1430.8800000000047,398.03000000026077 L1423.3300000000163,369.4899999992922 L1399.530000000028,337.839999999851"/>
   <path class="way"
         id="ID40870575"
         fill="none"
         stroke="#c70039"
         stroke-width="5px"
         stroke-linejoin="round"
         stroke-linecap="round"
         d="M1211.7200000000012,152.45000000018626 L1273.6800000000221,178.95999999996275 L1320.2300000000105,206.339999999851 L1325.9899999999907,206.43999999947846 L1334.4200000000128,204.60999999940395"/>
   <path class="way"
         id="ID40870588"
         fill="none"
         stroke="#c70039"
         stroke-width="5px"
         stroke-linejoin="round"
         stroke-linecap="round"
         d="M894.2800000000279,389.9799999995157 L1039.4800000000105,326.79999999981374 L1316.0799999999872,209.87999999988824 L1320.2300000000105,206.339999999851"/>
   <path class="way"
         id="ID42692797"
         fill="none"
         stroke="#c70039"
         stroke-width="5px"
         stroke-linejoin="round"
         stroke-linecap="round"
         d="M1039.4800000000105,326.79999999981374 L1005.7500000000291,300.4199999999255"/>
   <path class="way"
         id="ID59095997"
         fill="none"
         stroke="#c70039"
         stroke-width="5px"
         stroke-linejoin="round"
         stroke-linecap="round"
         d="M-142.0800000000163,401.5799999991432 L-129.8400000000256,407.410000000149 L106.47000000000116,542.929999999702"/>
   <path class="way"
         id="ID59095998"
         fill="none"
         stroke="#c70039"
         stroke-width="5px"
         stroke-linejoin="round"
         stroke-linecap="round"
         d="M106.47000000000116,542.929999999702 L98.52999999999884,548.3799999998882"/>
   <path class="way"
         id="ID59095999"
         fill="none"
         stroke="#c70039"
         stroke-width="5px"
         stroke-linejoin="round"
         stroke-linecap="round"
         d="M83.40000000002328,464.26999999955297 L136.67999999999302,444.9199999999255"/>
   <path class="way"
         id="ID69892565"
         fill="none"
         stroke="#c70039"
         stroke-width="5px"
         stroke-linejoin="round"
         stroke-linecap="round"
         d="M1289.4700000000303,257.21999999973923 L1321.4500000000116,289.76999999955297"/>
   <path class="way"
         id="ID69892568"
         fill="none"
         stroke="#c70039"
         stroke-width="5px"
         stroke-linejoin="round"
         stroke-linecap="round"
         d="M921.7900000000373,81.69000000040978 L910.25,83.8999999994412 L860.2099999999919,114.08999999985099"/>
   <path class="way"
         id="ID69892574"
         fill="none"
         stroke="#c70039"
         stroke-width="5px"
         stroke-linejoin="round"
         stroke-linecap="round"
         d="M988.0899999999965,164.52999999932945 L997.2699999999895,173.78000000026077 L998.8800000000338,180.79999999981374 L991.3100000000268,192.7700000004843 L988.0899999999965,197.77999999932945 L991.8399999999965,203.95999999996275 L1039.1000000000058,238"/>
   <path class="way"
         id="ID69892577"
         fill="none"
         stroke="#c70039"
         stroke-width="5px"
         stroke-linejoin="round"
         stroke-linecap="round"
         d="M381.13999999998487,502.12000000011176 L426.44000000003143,528.7799999993294"/>
   <path class="way"
         id="ID69892580"
         fill="none"
         stroke="#c70039"
         stroke-width="5px"
         stroke-linejoin="round"
         stroke-linecap="round"
         d="M451.9200000000128,510.53999999910593 L448.28000000002794,513.3700000001118 L430.21000000002095,525.75 L426.44000000003143,528.7799999993294"/>
   <path class="way"
         id="ID69892585"
         fill="none"
         stroke="#c70039"
         stroke-width="5px"
         stroke-linejoin="round"
         stroke-linecap="round"
         d="M584.3400000000256,603.9500000001863 L417.5,655.609999999404"/>
   <path class="way"
         id="ID69892590"
         fill="none"
         stroke="#c70039"
         stroke-width="5px"
         stroke-linejoin="round"
         stroke-linecap="round"
         d="M795.1999999999825,646.3099999995902 L727.929999999993,677.839999999851"/>
   <path class="way"
         id="ID69892600"
         fill="none"
         stroke="#c70039"
         stroke-width="5px"
         stroke-linejoin="round"
         stroke-linecap="round"
         d="M1183.1499999999942,757.0599999995902 L1126.4599999999919,721.089999999851"/>
   <path class="way"
         id="ID69892601"
         fill="none"
         stroke="#c70039"
         stroke-width="5px"
         stroke-linejoin="round"
         stroke-linecap="round"
         d="M1022.0899999999965,686.9199999999255 L1038.5100000000093,677.2900000000373 L1040.5499999999884,670.3799999998882 L1055.0400000000081,662.7199999997392"/>
   <path class="way"
         id="ID69892602"
         fill="none"
         stroke="#c70039"
         stroke-width="5px"
         stroke-linejoin="round"
         stroke-linecap="round"
         d="M1022.9400000000023,643.1599999992177 L1040.4500000000407,655.519999999553 L1050.3799999999756,659.1499999994412 L1055.0400000000081,662.7199999997392 L1065.4500000000116,664.9500000001863 L1092.1000000000058,682.6200000001118"/>
   <path class="way"
         id="ID69892603"
         fill="none"
         stroke="#c70039"
         stroke-width="5px"
         stroke-linejoin="round"
         stroke-linecap="round"
         d="M1327.3499999999767,584.0800000000745 L1325.7900000000081,582.9199999999255 L1324.5799999999872,582.1699999999255 L1323.1000000000058,581.5800000000745 L1321.0600000000268,581.3099999995902 L1318.890000000014,581.3099999995902 L1273.1499999999942,587.2799999993294 L1231.570000000007,596.179999999702 L1219.2399999999907,599.5400000000373 L1210.8500000000058,599.769999999553 L1197.7300000000105,598.1399999996647"/>
   <path class="way"
         id="ID69892605"
         fill="none"
         stroke="#c70039"
         stroke-width="5px"
         stroke-linejoin="round"
         stroke-linecap="round"
         d="M1036.600000000035,527.3799999998882 L1131.8899999999849,511.98000000044703"/>
   <path class="way"
         id="ID69915688"
         fill="none"
         stroke="#c70039"
         stroke-width="5px"
         stroke-linejoin="round"
         stroke-linecap="round"
         d="M1161.9800000000105,190.5 L1075.2400000000198,131.9199999999255"/>
   <path class="way"
         id="ID70220742"
         fill="none"
         stroke="#c70039"
         stroke-width="5px"
         stroke-linejoin="round"
         stroke-linecap="round"
         d="M56.470000000001164,187.36000000033528 L64.86000000001513,185.01999999955297 L73.04000000000815,184.94999999925494 L208.6600000000035,211.29999999981374 L255.05999999999767,222.84999999962747 L299.1600000000035,236.25999999977648 L341.8300000000163,249.29999999981374 L385.80000000001746,259.929999999702 L416.2600000000384,264.37000000011176 L445.89000000001397,267.7499999990687 L470.37000000002445,266.9900000002235 L494.64000000001397,263.6399999996647 L521.2300000000105,258.320000000298 L577.7700000000186,246.12999999988824 L662.0999999999767,227.09999999962747 L721.5499999999884,211.29000000003725 L740.5600000000268,203.37999999988824 L757.6300000000047,193.1599999992177 L824.75,139.7299999995157 L835.9900000000198,124.84999999962747 L838.2200000000012,119.45999999996275 L839.0300000000279,115.21999999973923 L838.1300000000338,108.3999999994412 L813.679999999993,59.5 L807.6300000000338,48.19000000040978"/>
   <path class="way"
         id="ID71643669"
         fill="none"
         stroke="#c70039"
         stroke-width="5px"
         stroke-linejoin="round"
         stroke-linecap="round"
         d="M643.539999999979,562.9499999992549 L781.5000000000291,542.910000000149 L846.8000000000175,532.269999999553"/>
   <path class="way"
         id="ID72343201"
         fill="none"
         stroke="#c70039"
         stroke-width="5px"
         stroke-linejoin="round"
         stroke-linecap="round"
         d="M779.5200000000186,716.7999999998137 L893.9500000000116,802.7400000002235"/>
   <path class="way"
         id="ID72343207"
         fill="none"
         stroke="#c70039"
         stroke-width="5px"
         stroke-linejoin="round"
         stroke-linecap="round"
         d="M693.6900000000314,732.2999999998137 L656.2399999999907,705.2399999992922 L585.9200000000128,650.6699999999255"/>
   <path class="way"
         id="ID72343246"
         fill="none"
         stroke="#c70039"
         stroke-width="5px"
         stroke-linejoin="round"
         stroke-linecap="round"
         d="M853.8299999999872,195.52999999932945 L906.609999999986,232.20999999996275 L951.320000000007,260.6900000004098"/>
   <path class="way"
         id="ID72343250"
         fill="none"
         stroke="#c70039"
         stroke-width="5px"
         stroke-linejoin="round"
         stroke-linecap="round"
         d="M929.2800000000279,668.6999999992549 L936.3400000000256,674.339999999851 L1015.5099999999802,730.9499999992549"/>
   <path class="way"
         id="ID72343257"
         fill="none"
         stroke="#c70039"
         stroke-width="5px"
         stroke-linejoin="round"
         stroke-linecap="round"
         d="M1060.210000000021,762.839999999851 L1069.4900000000198,756.6899999994785 L1108.7300000000105,732.3700000001118 L1115.039999999979,727.8499999996275 L1126.4599999999919,721.089999999851 L1145.6900000000023,709.2199999997392 L1161.890000000014,698.359999999404"/>
   <path class="way"
         id="ID79236411"
         fill="none"
         stroke="#c70039"
         stroke-width="5px"
         stroke-linejoin="round"
         stroke-linecap="round"
         d="M921.7900000000373,81.69000000040978 L934.2399999999907,83.52999999932945 L948.2099999999919,90.41000000014901 L970.640000000014,93.87999999988824 L992.359999999986,91.25999999977648 L1058.5199999999895,67.37000000011176 L1101.7699999999895,50.049999999813735 L1124.7299999999814,41.42999999970198"/>
   <path class="way"
         id="ID80931404"
         fill="none"
         stroke="#c70039"
         stroke-width="5px"
         stroke-linejoin="round"
         stroke-linecap="round"
         d="M127.71000000002095,723.0300000002608 L119.09999999997672,722.7599999997765"/>
   <path class="way"
         id="ID80931410"
         fill="none"
         stroke="#c70039"
         stroke-width="5px"
         stroke-linejoin="round"
         stroke-linecap="round"
         d="M41.38000000000466,721 L92.91000000000349,748.429999999702"/>
   <path class="way"
         id="ID81796558"
         fill="none"
         stroke="#c70039"
         stroke-width="5px"
         stroke-linejoin="round"
         stroke-linecap="round"
         d="M327.7699999999895,-391.70000000018626 L321.13999999998487,-340.6699999999255 L313.0799999999872,-282.820000000298 L307.29000000000815,-244.95999999996275 L299.75,-212.96999999973923 L293.070000000007,-183.48000000044703 L283.75,-153.160000000149 L251.9199999999837,-102.90000000037253 L224.9100000000035,-71.39000000059605 L203.2500000000291,-53.41000000014901 L189.45999999999185,-45.480000000447035 L174.17999999999302,-37.99000000022352 L161.2600000000093,-27.6800000006333 L102.55999999999767,49.96999999973923 L58.460000000020955,117.09999999962747 L50.51999999998952,134.7299999995157 L46.110000000015134,159.07000000029802 L48.329999999987194,171.74000000022352 L49.00999999998021,174.04999999981374 L56.470000000001164,187.36000000033528"/>
   <path class="way"
         id="ID85445264"
         fill="none"
         stroke="#c70039"
         stroke-width="5px"
         stroke-linejoin="round"
         stroke-linecap="round"
         d="M198.62999999997555,122.9899999992922 L264.20000000001164,145.50999999977648 L442.04000000003725,210.67999999970198 L491.2599999999802,225.8300000000745 L561.6199999999953,241.18999999947846 L577.7700000000186,246.12999999988824"/>
   <path class="way"
         id="ID85514941"
         fill="none"
         stroke="#c70039"
         stroke-width="5px"
         stroke-linejoin="round"
         stroke-linecap="round"
         d="M29.45999999999185,245.11000000033528 L32.90000000002328,230.67999999970198 L38.029999999998836,210.01999999955297 L43.48000000001048,196.70999999996275 L49.64000000001397,191.54000000003725 L56.470000000001164,187.36000000033528"/>
   <path class="way"
         id="ID85514950"
         fill="none"
         stroke="#c70039"
         stroke-width="5px"
         stroke-linejoin="round"
         stroke-linecap="round"
         d="M6.130000000004657,237.5200000004843 L-1.9699999999720603,241.5699999993667 L-23.010000000009313,252.339999999851"/>
   <path class="way"
         id="ID85514951"
         fill="none"
         stroke="#c70039"
         stroke-width="20px"
         stroke-linejoin="round"
         stroke-linecap="round"
         d="M-26.619999999995343,183.20000000018626 L-8.870000000024447,202.12000000011176 L3.3399999999965075,217.50999999977648 L8,223.1699999999255"/>
   <path class="way"
         id="ID85514954"
         fill="none"
         stroke="#c70039"
         stroke-width="20px"
         stroke-linejoin="round"
         stroke-linecap="round"
         d="M29.45999999999185,245.11000000033528 L30.860000000015134,253.42999999970198"/>
   <path class="way"
         id="ID85514958"
         fill="none"
         stroke="#c70039"
         stroke-width="20px"
         stroke-linejoin="round"
         stroke-linecap="round"
         d="M30.860000000015134,253.42999999970198 L23.29000000000815,248.57000000029802 L6.130000000004657,237.5200000004843"/>
   <path class="way"
         id="ID85514959"
         fill="none"
         stroke="#c70039"
         stroke-width="20px"
         stroke-linejoin="round"
         stroke-linecap="round"
         d="M8,223.1699999999255 L6.130000000004657,237.5200000004843"/>
   <path class="way"
         id="ID85514963"
         fill="none"
         stroke="#c70039"
         stroke-width="20px"
         stroke-linejoin="round"
         stroke-linecap="round"
         d="M30.860000000015134,253.42999999970198 L33.189999999973224,255.13999999966472 L39.529999999998836,260.62999999988824 L101.39999999999418,309.5599999995902 L103.02000000001863,310.87999999988824 L126.49000000001979,329.9199999999255 L157.01000000003842,359.78000000026077 L163.94999999998254,370.69999999925494 L177.9900000000198,390.179999999702 L184.43999999997322,401.93999999947846 L196.39999999999418,426.8999999994412 L215.25,461.76999999955297 L255.63999999998487,544.9400000004098"/>
   <path class="way"
         id="ID85515083"
         fill="none"
         stroke="#c70039"
         stroke-width="5px"
         stroke-linejoin="round"
         stroke-linecap="round"
         d="M38.029999999998836,210.01999999955297 L31.579999999987194,211.0200000004843 L11.60999999998603,215.29999999981374 L3.3399999999965075,217.50999999977648"/>
   <path class="way"
         id="ID93280982"
         fill="none"
         stroke="#c70039"
         stroke-width="5px"
         stroke-linejoin="round"
         stroke-linecap="round"
         d="M209.0100000000093,720.6899999994785 L225.01000000003842,729.2199999997392"/>
   <path class="way"
         id="ID93280992"
         fill="none"
         stroke="#c70039"
         stroke-width="5px"
         stroke-linejoin="round"
         stroke-linecap="round"
         d="M51.49000000001979,583.7399999992922 L63.10000000000582,587.0099999997765 L75.85000000003492,592.8099999995902 L272.3500000000058,703.359999999404 L319.4800000000105,731.339999999851"/>
   <path class="way"
         id="ID93281811"
         fill="none"
         stroke="#c70039"
         stroke-width="5px"
         stroke-linejoin="round"
         stroke-linecap="round"
         d="M276.7700000000186,739.1899999994785 L273.9100000000326,736.3199999993667 L267.1600000000035,733.410000000149 L235.31999999997788,730.25 L225.01000000003842,729.2199999997392 L204.0100000000093,727.1399999996647 L127.71000000002095,723.0300000002608"/>
   <path class="way"
         id="ID94255688"
         fill="none"
         stroke="#c70039"
         stroke-width="5px"
         stroke-linejoin="round"
         stroke-linecap="round"
         d="M722.1999999999825,673.4599999999627 L727.929999999993,677.839999999851 L779.5200000000186,716.7999999998137"/>
   <path class="way"
         id="ID107379155"
         fill="none"
         stroke="#c70039"
         stroke-width="5px"
         stroke-linejoin="round"
         stroke-linecap="round"
         d="M-33.139999999984866,390.69999999925494 L31.95000000001164,352.04000000003725"/>
   <path class="way"
         id="ID107379156"
         fill="none"
         stroke="#c70039"
         stroke-width="5px"
         stroke-linejoin="round"
         stroke-linecap="round"
         d="M133.14000000001397,293.9099999992177 L101.39999999999418,309.5599999995902"/>
   <path class="way"
         id="ID107585052"
         fill="none"
         stroke="#c70039"
         stroke-width="5px"
         stroke-linejoin="round"
         stroke-linecap="round"
         d="M1050.3799999999756,659.1499999994412 L1057.5899999999965,654.9999999990687 L1080.4300000000221,641.8300000000745 L1080.460000000021,641.8099999995902 L1126.9300000000221,615.0099999997765"/>
   <path class="way"
         id="ID110209175"
         fill="none"
         stroke="#c70039"
         stroke-width="5px"
         stroke-linejoin="round"
         stroke-linecap="round"
         d="M853.8299999999872,195.52999999932945 L875.3500000000058,176.00999999977648 L877.3000000000175,172.04000000003725 L877.8399999999965,168.44000000040978 L859.6399999999849,140.04000000003725 L850.4199999999837,127.58999999985099 L843.1800000000221,125.59999999962747 L835.9900000000198,124.84999999962747"/>
   <path class="way"
         id="ID112797057"
         fill="none"
         stroke="#c70039"
         stroke-width="5px"
         stroke-linejoin="round"
         stroke-linecap="round"
         d="M216.85999999998603,547.1699999999255 L230.69999999998254,551.1499999994412 L245.89000000001397,553.3300000000745 L250.30999999999767,551.5799999991432 L254.5799999999872,549.7299999995157"/>
   <path class="way"
         id="ID112803862"
         fill="none"
         stroke="#c70039"
         stroke-width="8px"
         stroke-linejoin="round"
         stroke-linecap="round"
         d="M1247.539999999979,27.84999999962747 L1246.6999999999825,21.08999999985099 L1243.1500000000233,-0.5400000000372529"/>
   <path class="way"
         id="ID143650491"
         fill="none"
         stroke="#c70039"
         stroke-width="5px"
         stroke-linejoin="round"
         stroke-linecap="round"
         d="M859.75,361.7400000002235 L894.2800000000279,389.9799999995157 L911.1999999999825,405.71999999973923 L927.5099999999802,419.1599999992177 L953.6699999999837,440.12999999988824 L978.6499999999942,460.910000000149"/>
   <path class="way"
         id="ID145688194"
         fill="none"
         stroke="#c70039"
         stroke-width="5px"
         stroke-linejoin="round"
         stroke-linecap="round"
         d="M102.55999999999767,49.96999999973923 L111.51999999998952,64.25 L118.86999999999534,75.68999999947846 L127.03000000002794,85.35999999940395 L139.69000000000233,96.04000000003725 L153.1700000000128,102.91000000014901 L173.5799999999872,112.07000000029802 L198.62999999997555,122.9899999992922"/>
   <path class="way"
         id="ID146712409"
         fill="none"
         stroke="#c70039"
         stroke-width="5px"
         stroke-linejoin="round"
         stroke-linecap="round"
         d="M-89.88999999998487,372.410000000149 L-33.139999999984866,390.69999999925494 L-8.829999999987194,400.5699999993667 L6.410000000032596,407.65000000037253 L24.24000000001979,418.5800000000745 L39.20999999999185,428.76999999955297 L47.93000000002212,434.71999999973923 L55.70000000001164,440.01999999955297 L69.05000000001746,450.64000000059605 L83.40000000002328,464.26999999955297"/>
   <path class="way"
         id="ID146712416"
         fill="none"
         stroke="#c70039"
         stroke-width="5px"
         stroke-linejoin="round"
         stroke-linecap="round"
         d="M216.85999999998603,547.1699999999255 L231.89000000001397,554.6299999998882 L248.55000000001746,560.5999999996275 L262.0800000000163,562.2000000001863"/>
   <path class="way"
         id="ID146712422"
         fill="none"
         stroke="#c70039"
         stroke-width="5px"
         stroke-linejoin="round"
         stroke-linecap="round"
         d="M83.40000000002328,464.26999999955297 L94.26999999998952,476.01999999955297 L109.97000000000116,489.54000000003725 L129.8300000000163,503.53000000026077 L141.39999999999418,512.3499999996275 L143.53000000002794,513.910000000149 L155.69999999998254,520.3899999996647 L216.85999999998603,547.1699999999255"/>
   <path class="way"
         id="ID146712428"
         fill="none"
         stroke="#c70039"
         stroke-width="5px"
         stroke-linejoin="round"
         stroke-linecap="round"
         d="M262.0800000000163,562.2000000001863 L270.27999999999884,560.8100000005215 L286.8300000000163,557.2800000002608 L324.7400000000198,535.4000000003725 L334.45999999999185,530.0800000000745 L381.13999999998487,502.12000000011176 L416.679999999993,479.8899999996647 L427.1000000000058,475.87000000011176 L432.97000000000116,474.410000000149 L437.97000000003027,473.7499999990687 L449.9799999999814,474.1699999999255 L454.5599999999977,476.04000000003725 L466.85999999998603,484.1399999996647 L487.2600000000093,499.4799999995157 L489.4100000000035,500.3899999996647 L491.54999999998836,500.6100000003353"/>
   <path class="way"
         id="ID154351381"
         fill="none"
         stroke="#c70039"
         stroke-width="8px"
         stroke-linejoin="round"
         stroke-linecap="round"
         d="M348.22000000000116,716.8999999994412 L372.45999999999185,711.410000000149 L397.8299999999872,704.8499999996275 L493.429999999993,682.6899999994785 L514.2000000000116,677.980000000447 L524.7399999999907,674.7299999995157 L585.9200000000128,650.6699999999255 L634.7800000000279,631.1199999991804 L651.2699999999895,624.5099999997765 L656.1299999999756,622.9699999997392 L672.9700000000012,617.0499999998137 L687.1399999999849,614.8199999993667 L699.8999999999942,614.1200000001118 L808.9700000000012,613.2399999992922 L889.6700000000128,612.3100000005215 L926.7600000000093,610.4599999999627 L962.679999999993,607.4599999999627 L989.820000000007,607.9699999997392"/>
   <path class="way"
         id="ID154352301"
         fill="none"
         stroke="#c70039"
         stroke-width="8px"
         stroke-linejoin="round"
         stroke-linecap="round"
         d="M1393.6200000000244,488.35999999940395 L1368.9700000000012,487.839999999851 L1342.4800000000105,487.3300000000745"/>
   <path class="way"
         id="ID154352302"
         fill="none"
         stroke="#c70039"
         stroke-width="5px"
         stroke-linejoin="round"
         stroke-linecap="round"
         d="M1393.6200000000244,488.35999999940395 L1393.5400000000081,500.179999999702 L1400.2900000000373,515.2900000000373 L1408.6199999999953,524.4199999999255 L1421.1700000000128,532.3099999995902 L1435.9300000000221,539.269999999553 L1453.6499999999942,545.6399999996647 L1479.1200000000244,552.8199999993667"/>
   <path class="way"
         id="ID154352304"
         fill="none"
         stroke="#c70039"
         stroke-width="8px"
         stroke-linejoin="round"
         stroke-linecap="round"
         d="M1658.820000000007,512.7099999999627 L1623.4199999999837,509.8300000000745 L1616.359999999986,509.19999999925494 L1605.570000000036,508.2399999992922 L1577.289999999979,505.589999999851 L1555.0599999999977,503.37999999988824 L1536.6500000000233,501.62000000011176 L1511.5299999999988,499.0599999995902 L1393.6200000000244,488.35999999940395"/>
   <path class="way"
         id="ID156938307"
         fill="none"
         stroke="#c70039"
         stroke-width="5px"
         stroke-linejoin="round"
         stroke-linecap="round"
         d="M1373.9100000000035,56.03999999910593 L1448.3000000000175,42.269999999552965"/>
   <path class="way"
         id="ID167288992"
         fill="none"
         stroke="#c70039"
         stroke-width="5px"
         stroke-linejoin="round"
         stroke-linecap="round"
         d="M1033.0500000000175,405.04000000003725 L1027.6700000000128,406.4900000002235 L953.6699999999837,440.12999999988824"/>
   <path class="way"
         id="ID191896451"
         fill="none"
         stroke="#c70039"
         stroke-width="5px"
         stroke-linejoin="round"
         stroke-linecap="round"
         d="M921.7900000000373,81.69000000040978 L919.0999999999767,68.6499999994412 L919.6399999999849,55.28000000026077 L928.1899999999732,44.34999999962747 L1095.5299999999988,-50.18999999947846 L1102.289999999979,-54.03000000026077"/>
   <path class="way"
         id="ID193994529"
         fill="none"
         stroke="#c70039"
         stroke-width="5px"
         stroke-linejoin="round"
         stroke-linecap="round"
         d="M310.97000000000116,931.359999999404 L339.64000000001397,919.089999999851 L368.8999999999942,906.359999999404 L470.95000000001164,860.4199999999255 L475.61999999999534,858.2999999998137 L595.8500000000058,803.4599999999627 L610.390000000014,797.2399999992922 L624.4099999999744,790.25 L713,747.859999999404 L779.5200000000186,716.7999999998137 L845.5800000000163,685.4099999992177 L910.7600000000093,653.6299999998882 L951.8699999999953,631.8300000000745 L982.179999999993,615.4500000001863 L989.820000000007,607.9699999997392"/>
   <path class="way"
         id="ID193994549"
         fill="none"
         stroke="#c70039"
         stroke-width="5px"
         stroke-linejoin="round"
         stroke-linecap="round"
         d="M-21.42999999996391,641.1399999996647 L75.31000000002678,697.9899999992922 L116.86000000001513,719.9900000002235 L119.09999999997672,722.7599999997765"/>
   <path class="way"
         id="ID193994552"
         fill="none"
         stroke="#c70039"
         stroke-width="5px"
         stroke-linejoin="round"
         stroke-linecap="round"
         d="M595.8299999999872,481.9099999992177 L632.3500000000058,459.679999999702 L649.4900000000198,450.0099999997765 L715.570000000007,421.20000000018626 L818.9200000000128,377.71999999973923 L859.75,361.7400000002235 L1005.7500000000291,300.4199999999255"/>
   <path class="way"
         id="ID193994558"
         fill="none"
         stroke="#c70039"
         stroke-width="5px"
         stroke-linejoin="round"
         stroke-linecap="round"
         d="M490.8300000000163,546.0499999998137 L533.5299999999988,548.4799999995157 L537.5800000000163,549.519999999553 L539.9700000000303,551.0800000000745 L542.5899999999965,554.1200000001118 L547.2300000000105,563.1299999998882 L550.3299999999872,573.7900000000373 L549.6100000000151,575.7199999997392 L528.6499999999942,592.6399999996647"/>
   <path class="way"
         id="ID202761565"
         fill="none"
         stroke="#c70039"
         stroke-width="8px"
         stroke-linejoin="round"
         stroke-linecap="round"
         d="M989.820000000007,607.9699999997392 L1005.3400000000256,606.160000000149 L1019.1900000000023,603.8699999991804 L1023.070000000007,603.0999999996275 L1069.2700000000186,593.929999999702 L1141.780000000028,575.5 L1158.5599999999977,571.1699999999255 L1204.9899999999907,555.890000000596 L1242.3500000000058,543.589999999851 L1252.3099999999977,539.8499999996275 L1319.4199999999837,510.5099999997765 L1327.5299999999988,507 L1334.600000000035,501.77999999932945 L1339.780000000028,495.089999999851 L1342.4800000000105,487.3300000000745"/>
   <path class="way"
         id="ID203007442"
         fill="none"
         stroke="#c70039"
         stroke-width="20px"
         stroke-linejoin="round"
         stroke-linecap="round"
         d="M8,223.1699999999255 L20.39999999999418,235.75999999977648 L29.45999999999185,245.11000000033528"/>
   <path class="way"
         id="ID291688625"
         fill="none"
         stroke="#c70039"
         stroke-width="5px"
         stroke-linejoin="round"
         stroke-linecap="round"
         d="M1132.789999999979,38.37000000011176 L1163.6900000000023,26.34999999962747 L1242.9400000000023,-3.919999999925494"/>
   <path class="way"
         id="ID291688627"
         fill="none"
         stroke="#c70039"
         stroke-width="5px"
         stroke-linejoin="round"
         stroke-linecap="round"
         d="M1095.5299999999988,-50.18999999947846 L1096.7200000000012,-25.110000000335276 L1096.0500000000175,41.869999999180436 L1101.7699999999895,50.049999999813735"/>
   <path class="way"
         id="ID326353083"
         fill="none"
         stroke="#c70039"
         stroke-width="5px"
         stroke-linejoin="round"
         stroke-linecap="round"
         d="M1171.6100000000151,397.79999999981374 L1158.5099999999802,378.20000000018626"/>
   <path class="way"
         id="ID326353145"
         fill="none"
         stroke="#c70039"
         stroke-width="5px"
         stroke-linejoin="round"
         stroke-linecap="round"
         d="M1242.3500000000058,543.589999999851 L1226.390000000014,528.4799999995157"/>
   <path class="way"
         id="ID326353146"
         fill="none"
         stroke="#c70039"
         stroke-width="5px"
         stroke-linejoin="round"
         stroke-linecap="round"
         d="M1221.3100000000268,516.4699999997392 L1216.2700000000186,506.5"/>
   <path class="way"
         id="ID326353147"
         fill="none"
         stroke="#c70039"
         stroke-width="5px"
         stroke-linejoin="round"
         stroke-linecap="round"
         d="M1226.390000000014,528.4799999995157 L1221.3100000000268,516.4699999997392"/>
   <path class="way"
         id="ID326353148"
         fill="none"
         stroke="#c70039"
         stroke-width="5px"
         stroke-linejoin="round"
         stroke-linecap="round"
         d="M1200.109999999986,509.8300000000745 L1216.2700000000186,506.5 L1238.3999999999942,501.179999999702 L1224.4199999999837,471.1900000004098"/>
   <path class="way"
         id="ID368374759"
         fill="none"
         stroke="#c70039"
         stroke-width="5px"
         stroke-linejoin="round"
         stroke-linecap="round"
         d="M953.7600000000093,262.09999999962747 L984.789999999979,281.4900000002235 L990.640000000014,283.84999999962747 L990.3699999999953,285.2599999997765 L991.109999999986,287.79000000003725 L1005.7500000000291,300.4199999999255"/>
   <path class="way"
         id="ID382309931"
         fill="none"
         stroke="#c70039"
         stroke-width="20px"
         stroke-linejoin="round"
         stroke-linecap="round"
         d="M6.130000000004657,237.5200000004843 L-5.169999999983702,224.25"/>
   <path class="way"
         id="ID382893358"
         fill="none"
         stroke="#c70039"
         stroke-width="20px"
         stroke-linejoin="round"
         stroke-linecap="round"
         d="M346.75,740.5599999995902 L347.4800000000105,730.519999999553 L348.22000000000116,716.8999999994412"/>
   <path class="way"
         id="ID386569901"
         fill="none"
         stroke="#c70039"
         stroke-width="5px"
         stroke-linejoin="round"
         stroke-linecap="round"
         d="M656.1299999999756,622.9699999997392 L719.9400000000023,671.7299999995157"/>
   <path class="way"
         id="ID473453178"
         fill="none"
         stroke="#c70039"
         stroke-width="5px"
         stroke-linejoin="round"
         stroke-linecap="round"
         d="M45.05999999999767,193.0800000000745 L46.10000000000582,193.42999999970198 L54.45000000001164,186.87000000011176 L54.079999999987194,185.42999999970198 L52.470000000001164,183.50999999977648 L48.51999999998952,182.29999999981374 L45.05999999999767,193.0800000000745"/>
   <path class="way"
         id="ID477173954"
         fill="none"
         stroke="#c70039"
         stroke-width="5px"
         stroke-linejoin="round"
         stroke-linecap="round"
         d="M208.6600000000035,211.29999999981374 L209.98000000001048,198.80999999959022 L199.05000000001746,139.69999999925494 L198.62999999997555,122.9899999992922"/>
   <path class="way"
         id="ID515965765"
         fill="none"
         stroke="#c70039"
         stroke-width="5px"
         stroke-linejoin="round"
         stroke-linecap="round"
         d="M1252.3099999999977,539.8499999996275 L1257.0800000000163,546.7099999999627 L1256.7200000000303,549.140000000596 L1255.1800000000221,551.6699999999255 L1211.7400000000198,586.9799999995157 L1197.7300000000105,598.1399999996647 L1172.6800000000221,619.0400000000373 L1115.9400000000314,664.1199999991804 L1113.7600000000093,666.7800000002608 L1111.3699999999953,673.1499999994412"/>
   <path class="way"
         id="ID555572902"
         fill="none"
         stroke="#c70039"
         stroke-width="20px"
         stroke-linejoin="round"
         stroke-linecap="round"
         d="M255.63999999998487,544.9400000004098 L263.1499999999942,548.0999999996275 L266.45000000001164,554.410000000149 L270.27999999999884,560.8100000005215 L279.53000000002794,578.3899999996647 L277.53999999997905,582.7400000002235"/>
   <path class="way"
         id="ID555572903"
         fill="none"
         stroke="#c70039"
         stroke-width="20px"
         stroke-linejoin="round"
         stroke-linecap="round"
         d="M277.53999999997905,582.7400000002235 L290.4100000000326,606.5499999998137 L339.0900000000256,700.0999999996275 L348.22000000000116,716.8999999994412"/>
   <path class="way"
         id="ID555572904"
         fill="none"
         stroke="#c70039"
         stroke-width="20px"
         stroke-linejoin="round"
         stroke-linecap="round"
         d="M277.53999999997905,582.7400000002235 L269.7300000000105,578.5499999998137 L266.88000000003376,572.8899999996647 L262.0800000000163,562.2000000001863 L254.5799999999872,549.7299999995157 L255.63999999998487,544.9400000004098"/>
   <path class="way"
         id="ID564466646"
         fill="none"
         stroke="#c70039"
         stroke-width="5px"
         stroke-linejoin="round"
         stroke-linecap="round"
         d="M1395.9300000000221,289.7400000002235 L1379.9899999999907,296.04000000003725"/>
   <path class="way"
         id="ID564466647"
         fill="none"
         stroke="#c70039"
         stroke-width="5px"
         stroke-linejoin="round"
         stroke-linecap="round"
         d="M1379.4900000000198,291.5800000000745 L1395.9300000000221,289.7400000002235"/>
   <path class="way"
         id="ID564466648"
         fill="none"
         stroke="#c70039"
         stroke-width="8px"
         stroke-linejoin="round"
         stroke-linecap="round"
         d="M1371.2400000000198,278.76999999955297 L1376.2099999999919,290.0699999993667"/>
   <path class="way"
         id="ID564466649"
         fill="none"
         stroke="#c70039"
         stroke-width="8px"
         stroke-linejoin="round"
         stroke-linecap="round"
         d="M1368.9500000000116,291.2700000004843 L1371.2400000000198,278.76999999955297"/>
   <path class="way"
         id="ID564466650"
         fill="none"
         stroke="#c70039"
         stroke-width="8px"
         stroke-linejoin="round"
         stroke-linecap="round"
         d="M1370.4700000000303,290.46999999973923 L1372.2900000000081,289.9799999995157 L1374.2600000000093,289.84999999962747 L1376.2099999999919,290.0699999993667 L1378.0400000000373,290.6699999999255 L1379.4900000000198,291.5800000000745 L1380.3699999999953,292.61999999918044 L1380.7600000000093,293.7599999997765 L1380.6300000000047,294.93999999947846 L1379.9899999999907,296.04000000003725 L1378.9100000000326,296.96999999973923 L1377.4700000000303,297.679999999702 L1375.4400000000314,298.1699999999255 L1373.2700000000186,298.2400000002235 L1371.1800000000221,297.87999999988824 L1369.4400000000314,297.1499999994412 L1368.140000000014,296.1399999996647 L1367.3999999999942,294.9199999999255 L1367.289999999979,293.62000000011176 L1367.8299999999872,292.37000000011176 L1368.9500000000116,291.2700000004843 L1370.4700000000303,290.46999999973923"/>
   <path class="way"
         id="ID564470908"
         fill="none"
         stroke="#c70039"
         stroke-width="5px"
         stroke-linejoin="round"
         stroke-linecap="round"
         d="M1328.3999999999942,207.9899999992922 L1329.7400000000198,209.86999999918044 L1333.3600000000151,209.32999999914318 L1332.5599999999977,208.10999999940395 L1331.4199999999837,207.49000000022352 L1328.3999999999942,207.9899999992922"/>
   <path class="way"
         id="ID595229987"
         fill="none"
         stroke="#c70039"
         stroke-width="5px"
         stroke-linejoin="round"
         stroke-linecap="round"
         d="M860.2099999999919,114.08999999985099 L850.820000000007,119.10999999940395 L844.5200000000186,119.8199999993667 L838.2200000000012,119.45999999996275"/>
   <path class="rail"
         id="ID112803866"
         fill="none"
         stroke="#ffc300"
         stroke-width="10px"
         stroke-linejoin="round"
         stroke-linecap="round"
         d="M-131.8299999999872,219.62999999988824 L-37.69000000000233,220.50999999977648 L-3.040000000008149,222.2299999995157 L31.89999999999418,224.3300000000745 L60.49000000001979,227.339999999851 L95.86999999999534,231.5 L142.19000000000233,238.02999999932945 L193.44000000000233,248.60999999940395 L302.21000000002095,278.6100000003353 L371.88000000000466,295.410000000149 L391.7699999999895,298.76999999955297 L411.7699999999895,301.2299999995157 L431.1700000000128,303.1699999999255 L453.11999999999534,305.0099999997765 L468.78999999997905,306.3199999993667 L488.77999999999884,307.2099999990314 L522.5800000000163,307.02999999932945 L575.2600000000093,303.87999999988824 L607.6800000000221,299.87999999988824 L626.8699999999953,296.75 L679.0599999999977,284.20000000018626 L769.5799999999872,253.9799999995157 L981.9599999999919,146.02999999932945 L1118.2399999999907,80.13999999966472 L1204.5,37.71999999973923 L1284.2600000000384,0.8399999998509884 L1377.0400000000081,-41.87999999988824"/>
   <path class="polygon"
         id="ID24255916"
         fill="#ff5733"
         d="M75.26000000000931,705.4500000001863 L52.85999999998603,719.769999999553 L52.170000000012806,720.7399999992922 L52.6699999999837,721.8700000001118 L87.04000000000815,740.2199999997392 L89.45000000001164,740.4699999997392 L91.79000000000815,740.1399999996647 L111.38000000000466,724.2999999998137 L111.72000000003027,723.5099999997765 L111.25,722.3699999991804 L101.52999999999884,716.8499999996275 L79.63999999998487,705.3799999998882 L77.30000000001746,704.9699999997392 L75.26000000000931,705.4500000001863"/>
   <path class="polygon"
         id="ID26743780"
         fill="#ff5733"
         d="M1304.5400000000081,631.5499999998137 L1327.2799999999988,622.109999999404 L1380.8400000000256,603.3700000001118 L1441.7200000000012,609.0499999998137 L1471.75,614.0299999993294 L1474.9800000000105,614.5699999993667 L1488.1199999999953,616.359999999404 L1502.3899999999849,622.109999999404 L1506.3400000000256,624.429999999702 L1515.0299999999988,627.2799999993294 L1513.0100000000384,632.3700000001118 L1512.8000000000175,633.4399999994785 L1505.7799999999988,633.1500000003725 L1501.7099999999919,632.980000000447 L1497.4900000000198,633.410000000149 L1490.070000000007,635.6200000001118 L1486.6700000000128,637.089999999851 L1484.140000000014,638.7999999998137 L1481.1800000000221,642.6699999999255 L1479.1699999999837,647.1299999998882 L1478.8399999999965,650.1200000001118 L1480.3700000000244,657.5999999996275 L1482.5200000000186,660.5599999995902 L1483.390000000014,661.7499999990687 L1483.9199999999837,661.9399999994785 L1489.710000000021,664.0300000002608 L1490.8800000000047,667.570000000298 L1489.8899999999849,673.1399999996647 L1487.2900000000081,681.3799999998882 L1431.8600000000151,665.4599999990314 L1425.2999999999884,673.230000000447 L1339.2599999999802,643.5299999993294 L1304.5400000000081,631.5499999998137"/>
   <path class="polygon"
         id="ID96774929"
         fill="#ff5733"
         d="M347.39000000001397,407.09999999962747 L320.7500000000291,427.4799999995157 L294.54999999998836,414.18999999947846 L268.4100000000035,400.929999999702 L295.03999999997905,380.54999999981374 L347.39000000001397,407.09999999962747"/>
   <path class="polygon"
         id="ID157029022"
         fill="#ff5733"
         d="M994.5599999999977,478.90000000037253 L980.0299999999988,466.5 L988.6699999999837,462.5699999993667 L983.75,458.36999999918044 L963.3999999999942,441.0099999997765 L1033.8799999999756,408.94999999925494 L1053.8399999999965,425.9799999995157 L1026.8799999999756,438.2399999992922 L1039.6100000000151,449.09999999962747 L1028.5400000000373,454.12999999988824 L1035.6699999999837,460.20999999996275 L1002.75,475.179999999702 L994.5599999999977,478.90000000037253"/>
   <path class="polygon"
         id="ID269095191"
         fill="#ff5733"
         d="M406.3399999999965,416 L418.3399999999965,420.93999999947846 L410.95000000001164,429.12999999988824 L469.0599999999977,457.27999999932945 L539.4499999999825,401.589999999851 L478.38000000000466,369.9099999992177 L421.320000000007,405.839999999851 L406.3399999999965,416"/>
   <path class="polygon"
         id="ID269095202"
         fill="#ff5733"
         d="M426.6499999999942,434.25 L442.45999999999185,421.589999999851 L483.94000000003143,440.51999999955297 L468.75,453.3199999993667 L426.6499999999942,434.25"/>
   <path class="polygon"
         id="ID326343736"
         fill="#ff5733"
         d="M1123.000000000029,402.2400000002235 L1144.9199999999837,395.2400000002235 L1154.890000000014,407.35999999940395 L1163.570000000007,417.910000000149 L1141.6499999999942,424.910000000149 L1123.000000000029,402.2400000002235"/>
   <path class="polygon"
         id="ID326343737"
         fill="#ff5733"
         d="M1225.820000000007,457.12999999988824 L1234.4899999999907,453.8099999995902 L1245.6800000000221,449.51999999955297 L1262.8199999999779,466.8999999994412 L1242.960000000021,474.5 L1225.820000000007,457.12999999988824"/>
   <path class="polygon"
         id="ID326353276"
         fill="#ff5733"
         d="M1091.600000000035,413.95000000018626 L1122.7900000000081,404.37000000011176 L1146.5500000000175,434.37999999988824 L1115.359999999986,443.95999999996275 L1091.600000000035,413.95000000018626"/>
   <path class="polygon"
         id="ID326354272"
         fill="#ff5733"
         d="M993.2200000000012,461.7599999997765 L1013.4300000000221,452.2299999995157 L1022.3199999999779,459.54999999981374 L1002.1100000000151,469.0800000000745 L993.2200000000012,461.7599999997765"/>
   <path class="polygon"
         id="ID326354273"
         fill="#ff5733"
         d="M976.9199999999837,443.179999999702 L995.3499999999767,434.429999999702 L1005.5400000000081,442.75 L987.1100000000151,451.5099999997765 L976.9199999999837,443.179999999702"/>
   <path class="polygon"
         id="ID326354275"
         fill="#ff5733"
         d="M1135.5299999999988,583.5300000002608 L1208.1200000000244,559.1499999994412 L1248.4599999999919,545.5999999996275 L1250.6000000000058,548.7700000004843 L1202.3700000000244,588.2199999997392 L1170.140000000014,612.980000000447 L1151.390000000014,602.4500000001863 L1159.500000000029,597.769999999553 L1135.5299999999988,583.5300000002608"/>
   <path class="polygon"
         id="ID326381567"
         fill="#ff5733"
         d="M1259.4100000000035,438.3199999993667 L1208.9700000000012,451.4900000002235 L1197.1600000000326,433.9199999999255 L1192.7900000000373,432.429999999702 L1188.7699999999895,433.43999999947846 L1178.0400000000081,429.2599999997765 L1165.6999999999825,429.429999999702 L1159.8000000000175,433.59999999962747 L1165.2200000000303,446.2299999995157 L1188.8399999999965,442.3600000003353 L1195.0800000000163,455.20000000018626 L1198.6100000000151,462.95000000018626 L1200.0799999999872,466.1699999999255 L1202.6100000000151,471.339999999851 L1210.7399999999907,469.93999999947846 L1231.710000000021,466.3299999991432 L1241.0200000000186,477.4900000002235 L1265.5100000000384,466.8300000000745 L1258.9100000000035,460.95999999996275 L1264.5199999999895,458.3899999996647 L1269.1000000000058,456.29000000003725 L1259.4100000000035,438.3199999993667"/>
   <path class="polygon"
         id="ID395171817"
         fill="#ff5733"
         d="M674.9599999999919,679.6299999998882 L690.3600000000151,671.679999999702 L702.5500000000175,680.8499999996275 L687.1500000000233,688.7900000000373 L674.9599999999919,679.6299999998882"/>
   <text class="rail"
         transform=" translate(453.11999999999534,348.0099999997765) scale(1.5, 1.0)"
         text-anchor="middle"
         fill="#ffc300"
         font-family="Asap"
         font-size="40px"
         font-weight="bold">Montpelier</text>
   <script>
        
          const reg = /(?:M|L)([-\d.]+),([-\d.]+)/;
          document.querySelectorAll('.rail').forEach(way =&gt; {
            const path = way.getAttribute('d').split(' ').map(p =&gt; {
              const m = p.match(reg);
              return {x:parseFloat(m[1],10), y:parseFloat(m[2],10)};
            });
            let beziers = [`M${path[0].x},${path[0].y}`];
            beziers.push(` Q${(path[0].x+path[1].x)/2},${(path[0].y+path[1].y)/2}`);
            beziers.push(` ${path[1].x},${path[1].y}`);
            for (i=2; i&lt;path.length; i++) {
              beziers.push(` T${path[i].x},${path[i].y}`);
            }
            way.setAttribute('d', beziers.join(''));
          });

          document.querySelectorAll('.way').forEach(way =&gt; {
            const path = way.getAttribute('d').split(' ').map(p =&gt; {
              const m = p.match(reg);
              return {x:parseFloat(m[1],10), y:parseFloat(m[2],10)};
            });
            const s = i =&gt; `${path[i].x},${path[i].y}`;
            const m = (i, j) =&gt; `${(path[i].x+path[j].x)/2},${(path[i].y+path[j].y)/2}`;

            let beziers = [`M${s(0)}`];
            beziers.push(` L${m(0,1)}`);
            let i=1;
            for (i=1; i&lt;path.length-1; i++) {
              beziers.push(` Q${s(i)} ${m(i,i+1)}`);
            }
            beziers.push(` L${s(i)}`);

            way.setAttribute('d', beziers.join(''));
          });

        
      </script>
</svg>
