<?xml version="1.0" encoding="UTF-8"?>
<svg xmlns="http://www.w3.org/2000/svg"
     xmlns:xlink="http://www.w3.org/1999/xlink"
     version="1.1"
     viewBox="0 0 1441.399999999965 601.5"
     width="100%"
     height="100%"
     id="svgroot">
   <rect x="-1441.399999999965"
         y="-601.5"
         width="4324.199999999895"
         height="1804.5"
         fill="#ddd"/>
   <rect x="0"
         y="0"
         width="1441.399999999965"
         height="601.5"
         stroke="black"
         stroke-width="2px"/>


      // roads
      <path id="ID3878216"
         fill="none"
         stroke="#d55"
         stroke-width="18px"
         stroke-linejoin="round"
         stroke-linecap="round"
         d="M1370.7399999999907,139.1699999999255 L1368.8499999999767,132.71999999973923 L1364.3499999999476,124.8300000000745 L1343.0299999999988,83.95999999996275 L1333.9199999999837,65.00999999977648 L1318.5499999999884,32.09999999962747 L1296.179999999964,-13.299999999813735 L1255.2200000000012,-92.78000000026077 L1251.7399999999616,-98.5 L1248.4799999999523,-104.70000000018626 L1247.8799999999756,-108.37000000011176 L1247.03999999995,-111.75 "/>
   <path id="ID3878220"
         fill="none"
         stroke="#d55"
         stroke-width="16px"
         stroke-linejoin="round"
         stroke-linecap="round"
         d="M1110.8699999999662,533.5499999998137 L1107.4199999999837,533.3600000003353 L1103.649999999965,534.7200000006706 L1091.5999999999767,543.0200000004843 L1063.8899999999849,562.0900000007823 L1050.3099999999686,570.2200000006706 L1015.0099999999511,591.3499999996275 L953.6299999999464,627.5300000002608 L948.2499999999709,630.480000000447 L893.4499999999825,663.140000000596 L834.7199999999721,699.8600000003353 L829.6300000000047,704.0600000005215 L823.5699999999488,708.480000000447 "/>
   <path id="ID4013274"
         fill="none"
         stroke="#d55"
         stroke-width="16px"
         stroke-linejoin="round"
         stroke-linecap="round"
         d="M1396.2299999999523,152.2700000004843 L1423.9799999999814,143.07000000029802 L1432.859999999957,140.74000000022352 L1444.9199999999837,137.5800000000745 L1477.7599999999802,126.0100000007078 L1497.149999999965,114.91000000014901 L1501.929999999993,109.67999999970198 "/>
   <path id="ID4013279"
         fill="none"
         stroke="#d55"
         stroke-width="13px"
         stroke-linejoin="round"
         stroke-linecap="round"
         d="M1211.219999999972,12.850000000558794 L1193.4599999999919,-52.21999999973923 L1194.469999999972,-59.080000000074506 L1255.2200000000012,-92.78000000026077 "/>
   <path id="ID4013281"
         fill="none"
         stroke="#d55"
         stroke-width="13px"
         stroke-linejoin="round"
         stroke-linecap="round"
         d="M990.1399999999849,144.25 L995.429999999993,140.90000000037253 L1036.6599999999744,122.27000000048429 L1078.7399999999616,102.92999999970198 L1115.78999999995,82.45999999996275 L1147.53999999995,62.549999999813735 L1161.4799999999814,50.90000000037253 L1197.5599999999977,18.240000000223517 L1211.219999999972,12.850000000558794 "/>
   <path id="ID4013282"
         fill="none"
         stroke="#d55"
         stroke-width="18px"
         stroke-linejoin="round"
         stroke-linecap="round"
         d="M1341.9799999999814,347.73000000044703 L1343.9399999999732,333.410000000149 L1354.9599999999627,261.9400000004098 L1355.829999999958,255.03000000026077 L1361.0199999999895,213.6000000005588 L1369.1300000000047,164.63999999966472 L1370.679999999993,158.2700000004843 "/>
   <path id="ID4013285"
         fill="none"
         stroke="#d55"
         stroke-width="13px"
         stroke-linejoin="round"
         stroke-linecap="round"
         d="M397.3299999999581,565.25 L394.44999999995343,558.9000000003725 L394.0099999999802,556.0400000000373 L396.03999999997905,551.1900000004098 L410.5199999999604,525.0500000007451 L416.9999999999709,516.0099999997765 L490.3299999999872,406.45000000018626 L499.5699999999779,391.929999999702 L503.1799999999639,387.40000000037253 L507.54999999995925,383.45000000018626 "/>
   <path id="ID4013287"
         fill="none"
         stroke="#d55"
         stroke-width="16px"
         stroke-linejoin="round"
         stroke-linecap="round"
         d="M1110.8699999999662,533.5499999998137 L1115.749999999971,534.7099999999627 L1161.3899999999849,558.7599999997765 L1169.3499999999767,563.0600000005215 L1230.179999999993,593.9500000001863 L1248,603.4699999997392 L1290.1299999999756,624.4400000004098 L1351.3899999999849,655.640000000596 L1416.8099999999977,689.6200000001118 "/>
   <path id="ID4076205"
         fill="none"
         stroke="#d55"
         stroke-width="13px"
         stroke-linejoin="round"
         stroke-linecap="round"
         d="M576.9700000000012,395.62000000011176 L593.1699999999837,395.070000000298 L614.1299999999756,393.8099999995902 L623.9499999999825,392 L631.7299999999814,389.25 L644.9499999999825,380.9199999999255 L654.4400000000023,378.37000000011176 L675.2599999999802,374.65000000037253 L715.8399999999674,368.70999999996275 L773.7399999999907,360.6699999999255 L811.7399999999616,357.12000000011176 L818.0299999999697,356.73000000044703 L844.6199999999662,358.9900000002235 L851.3799999999756,358.6100000003353 L859.0099999999511,356.820000000298 L950.0499999999593,334.0100000007078 L964.7999999999884,327.75 L978.1499999999651,321.31000000052154 "/>
   <path id="ID4081681"
         fill="none"
         stroke="#d55"
         stroke-width="13px"
         stroke-linejoin="round"
         stroke-linecap="round"
         d="M491.04999999995925,361.0100000007078 L493.3299999999581,360.839999999851 L497.61999999996624,359.25 L618.5299999999697,275.0200000004843 L706.6999999999534,211.45999999996275 L818.9100000000035,146.75000000093132 L906.1099999999569,92.61000000033528 "/>
   <path id="ID4081682"
         fill="none"
         stroke="#d55"
         stroke-width="13px"
         stroke-linejoin="round"
         stroke-linecap="round"
         d="M449.47999999995227,334.570000000298 L456,329.81000000052154 L472.9999999999709,317.1000000005588 L566.0299999999697,244.69000000040978 L568.3499999999767,243.1699999999255 L662.469999999943,176.089999999851 L766.7599999999802,111.12000000011176 L820.7099999999919,80.15000000037253 L853.3299999999581,55.92999999970198 L900.4699999999721,32.58999999985099 L961.9199999999837,-3.0299999993294477 "/>
   <path id="ID4081688"
         fill="none"
         stroke="#d55"
         stroke-width="13px"
         stroke-linejoin="round"
         stroke-linecap="round"
         d="M321.1899999999441,-52.34999999962747 L385.9799999999814,-28.389999999664724 L533.9399999999732,29.520000000484288 L571.9799999999814,38.94000000040978 L662.2199999999721,17.84000000078231 L679.2499999999709,10.050000000745058 L745.2199999999721,-41.830000000074506 L807.1300000000047,-91.40999999921769 "/>
   <path id="ID4081689"
         fill="none"
         stroke="#d55"
         stroke-width="13px"
         stroke-linejoin="round"
         stroke-linecap="round"
         d="M-47.17000000004191,-23.859999999403954 L-7.630000000004657,-0.30999999959021807 L0.7099999999918509,4.2999999998137355 L47.82999999995809,32.14000000059605 "/>
   <path id="ID4081701"
         fill="none"
         stroke="#d55"
         stroke-width="13px"
         stroke-linejoin="round"
         stroke-linecap="round"
         d="M22.789999999979045,108.97000000067055 L28.959999999962747,105.5100000007078 "/>
   <path id="ID4313965"
         fill="none"
         stroke="#d55"
         stroke-width="13px"
         stroke-linejoin="round"
         stroke-linecap="round"
         d="M-199.0800000000454,918.980000000447 L-206.9200000000419,912 L-209.67999999999302,903.1500000003725 L-210.86999999999534,894.8700000001118 L-205.44000000000233,883.9599999999627 L-192.4000000000524,875.0499999998137 L-184.0800000000163,869.0400000000373 L-98.01000000000931,809.25 L-48.98000000001048,777.179999999702 L68.70000000001164,697.2000000001863 L71.78999999994994,694.75 L82.6699999999546,687.839999999851 L151.5899999999674,640.6200000001118 L187.93999999997322,614.9199999999255 L192.52999999996973,609.7999999998137 L203.5099999999802,587.5400000000373 "/>
   <path id="ID4315931"
         fill="none"
         stroke="#d55"
         stroke-width="13px"
         stroke-linejoin="round"
         stroke-linecap="round"
         d="M-171.30999999999767,304.410000000149 L-155.1600000000035,311.79000000003725 L59.80999999996857,437.4900000002235 "/>
   <path id="ID4315932"
         fill="none"
         stroke="#d55"
         stroke-width="13px"
         stroke-linejoin="round"
         stroke-linecap="round"
         d="M-101.64000000001397,563.9400000004098 L-21.929999999993015,501.54000000003725 L16.039999999979045,472.53000000026077 L50.98999999999069,444.1399999996647 L59.80999999996857,437.4900000002235 L98.02999999996973,408.78000000026077 "/>
   <path id="ID4315934"
         fill="none"
         stroke="#d55"
         stroke-width="13px"
         stroke-linejoin="round"
         stroke-linecap="round"
         d="M16.039999999979045,472.53000000026077 L-202.86000000001513,344.04000000003725 "/>
   <path id="ID4315935"
         fill="none"
         stroke="#d55"
         stroke-width="13px"
         stroke-linejoin="round"
         stroke-linecap="round"
         d="M16.039999999979045,472.53000000026077 L208.5099999999802,581.089999999851 "/>
   <path id="ID4329802"
         fill="none"
         stroke="#d55"
         stroke-width="13px"
         stroke-linejoin="round"
         stroke-linecap="round"
         d="M263.69999999998254,5.910000000149012 L321.1899999999441,-52.34999999962747 L319.1900000000023,-73.3300000000745 L321.20999999996275,-83.27999999932945 L323.54999999995925,-90.04999999981374 L328.9099999999744,-99.7399999992922 L336.28999999997905,-109.28999999910593 L345.1699999999837,-117.37000000011176 L410.5999999999476,-173.76999999955297 L444.28999999997905,-227.3199999993667 L451.62999999994645,-238.79000000003725 L469.2399999999616,-269.86999999918044 L477.5799999999872,-312.7599999997765 L484.87999999997555,-379.51999999955297 L485.1599999999744,-382.11999999918044 L498.52999999996973,-440.43999999947846 L508.94999999998254,-502.3999999994412 "/>
   <path id="ID4329804"
         fill="none"
         stroke="#d55"
         stroke-width="13px"
         stroke-linejoin="round"
         stroke-linecap="round"
         d="M679.2499999999709,10.050000000745058 L345.1699999999837,-117.37000000011176 "/>
   <path id="ID4345223"
         fill="none"
         stroke="#d55"
         stroke-width="16px"
         stroke-linejoin="round"
         stroke-linecap="round"
         d="M346.2499999999709,600.9599999999627 L333.61999999996624,599.3099999995902 L300.0799999999581,595.9500000001863 L287.6499999999651,596.5099999997765 L276.2699999999895,599.589999999851 "/>
   <path id="ID4345226"
         fill="none"
         stroke="#d55"
         stroke-width="13px"
         stroke-linejoin="round"
         stroke-linecap="round"
         d="M118.59999999994761,583.160000000149 L116.88999999995576,587.6200000001118 L92.40999999997439,608.8300000000745 L49.71999999997206,643.1499999994412 L21.54999999998836,665.7600000007078 L9.25999999998021,674.519999999553 L-108.46000000002095,742.4900000002235 L-245.12000000005355,837.2000000001863 "/>
   <path id="ID4374866"
         fill="none"
         stroke="#d55"
         stroke-width="10px"
         stroke-linejoin="round"
         stroke-linecap="round"
         d="M491.04999999995925,361.0100000007078 L493.3599999999569,364.15000000037253 L507.54999999995925,383.45000000018626 "/>
   <path id="ID4453791"
         fill="none"
         stroke="#d55"
         stroke-width="13px"
         stroke-linejoin="round"
         stroke-linecap="round"
         d="M507.54999999995925,383.45000000018626 L543.4599999999919,366.3899999996647 L595.3299999999581,342.3099999995902 "/>
   <path id="ID4608658"
         fill="none"
         stroke="#d55"
         stroke-width="13px"
         stroke-linejoin="round"
         stroke-linecap="round"
         d="M533.9399999999732,29.520000000484288 L490.7599999999511,86.23000000044703 "/>
   <path id="ID4745130"
         fill="none"
         stroke="#d55"
         stroke-width="13px"
         stroke-linejoin="round"
         stroke-linecap="round"
         d="M271.8499999999767,563.7599999997765 L275.0899999999965,559.7099999999627 L272.6099999999569,551.3999999994412 L258.47999999995227,527.7000000001863 L243.71999999994296,501.4900000002235 L230.7599999999802,485.0800000000745 L211.93999999997322,472.15000000037253 L124.15999999997439,424.45999999996275 L98.02999999996973,408.78000000026077 "/>
   <path id="ID4745132"
         fill="none"
         stroke="#d55"
         stroke-width="13px"
         stroke-linejoin="round"
         stroke-linecap="round"
         d="M143.02999999999884,374.31000000052154 L140.88000000000466,375.95000000018626 L119.02999999996973,392.73000000044703 L105.96999999997206,403.3300000000745 "/>
   <path id="ID4827705"
         fill="none"
         stroke="#d55"
         stroke-width="13px"
         stroke-linejoin="round"
         stroke-linecap="round"
         d="M1036.6599999999744,122.27000000048429 L1038.5999999999767,98.40000000037253 L1054.109999999957,2.059999999590218 L1072.7599999999802,-6.669999999925494 L1074.7399999999907,-7.679999999701977 L1164.5499999999593,-53.700000000186265 "/>
   <path id="ID4832789"
         fill="none"
         stroke="#d55"
         stroke-width="13px"
         stroke-linejoin="round"
         stroke-linecap="round"
         d="M595.3299999999581,342.3099999995902 L667.5799999999872,324.20000000018626 L785.1899999999732,299.47000000067055 L910.6999999999534,266.12000000011176 "/>
   <path id="ID4832791"
         fill="none"
         stroke="#d55"
         stroke-width="13px"
         stroke-linejoin="round"
         stroke-linecap="round"
         d="M1361.0199999999895,213.6000000005588 L1314.6299999999756,213.95999999996275 L1174.4799999999523,257.160000000149 L1171.109999999986,258.20000000018626 "/>
   <path id="ID4832792"
         fill="none"
         stroke="#d55"
         stroke-width="13px"
         stroke-linejoin="round"
         stroke-linecap="round"
         d="M1368.8499999999767,132.71999999973923 L1320.9499999999825,150.1699999999255 L1265.2699999999604,169.65000000037253 L1162.079999999958,206.19000000040978 L1096.469999999972,233.95999999996275 L1038.9899999999616,260.95000000018626 L1032.5499999999884,265.4400000004098 "/>
   <path id="ID4832795"
         fill="none"
         stroke="#d55"
         stroke-width="13px"
         stroke-linejoin="round"
         stroke-linecap="round"
         d="M1032.5499999999884,265.4400000004098 L1035.8800000000047,265.929999999702 L1048.749999999971,276.73000000044703 L1051.0899999999674,278.95000000018626 L1054.7799999999697,282.45000000018626 L1056.4199999999546,284.25 L1085.7999999999593,316.46999999973923 L1110.7699999999604,343.8600000003353 L1131.3899999999558,372.38000000081956 L1158.0599999999686,431.570000000298 "/>
   <path id="ID4832797"
         fill="none"
         stroke="#d55"
         stroke-width="13px"
         stroke-linejoin="round"
         stroke-linecap="round"
         d="M543.4599999999919,366.3899999996647 L576.9700000000012,395.62000000011176 L610.4599999999919,436.25 L650.7699999999604,484.910000000149 "/>
   <path id="ID4832798"
         fill="none"
         stroke="#d55"
         stroke-width="10px"
         stroke-linejoin="round"
         stroke-linecap="round"
         d="M712.4999999999709,608.2599999997765 L693.1900000000023,592.7000000001863 "/>
   <path id="ID4890198"
         fill="none"
         stroke="#d55"
         stroke-width="13px"
         stroke-linejoin="round"
         stroke-linecap="round"
         d="M1430.8499999999767,259.1000000005588 L1483.8299999999872,254.50999999977648 L1497.2299999999523,252.86000000033528 L1500.5899999999674,251.76999999955297 L1537.0899999999674,239.95000000018626 L1592.2999999999884,222.06000000052154 "/>
   <path id="ID8172816"
         fill="none"
         stroke="#d55"
         stroke-width="13px"
         stroke-linejoin="round"
         stroke-linecap="round"
         d="M1327.0299999999697,367.40000000037253 L1337.4499999999825,388.660000000149 L1352.7799999999697,409.339999999851 L1380.9599999999919,430.14000000059605 L1390.2399999999907,434.9400000004098 L1401.5999999999767,439.37000000011176 L1428.1299999999756,446.1699999999255 L1456.7999999999593,451.8099999995902 L1468.219999999972,455.13000000081956 L1490.8099999999977,466.2600000007078 L1511.579999999958,478.21999999973923 "/>
   <path id="ID8302427"
         fill="none"
         stroke="#d55"
         stroke-width="13px"
         stroke-linejoin="round"
         stroke-linecap="round"
         d="M561.1599999999744,609.0900000007823 L655.7399999999616,565.6399999996647 "/>
   <path id="ID16196874"
         fill="none"
         stroke="#d55"
         stroke-width="13px"
         stroke-linejoin="round"
         stroke-linecap="round"
         d="M1169.3499999999767,563.0600000005215 L1326.8499999999476,444.48000000044703 "/>
   <path id="ID19084148"
         fill="none"
         stroke="#d55"
         stroke-width="13px"
         stroke-linejoin="round"
         stroke-linecap="round"
         d="M1110.7699999999604,343.8600000003353 L1005.6499999999651,361.95999999996275 "/>
   <path id="ID19084181"
         fill="none"
         stroke="#d55"
         stroke-width="13px"
         stroke-linejoin="round"
         stroke-linecap="round"
         d="M1110.7699999999604,343.8600000003353 L1197.6999999999825,330.2500000009313 "/>
   <path id="ID19084308"
         fill="none"
         stroke="#d55"
         stroke-width="13px"
         stroke-linejoin="round"
         stroke-linecap="round"
         d="M1318.9199999999546,370.910000000149 L1262.6999999999534,321.8300000000745 "/>
   <path id="ID19084463"
         fill="none"
         stroke="#d55"
         stroke-width="13px"
         stroke-linejoin="round"
         stroke-linecap="round"
         d="M1131.3899999999558,372.38000000081956 L1221.5400000000081,357.7599999997765 "/>
   <path id="ID19084524"
         fill="none"
         stroke="#d55"
         stroke-width="13px"
         stroke-linejoin="round"
         stroke-linecap="round"
         d="M808.4699999999721,473.6399999996647 L805.5299999999988,460.570000000298 L800.0899999999674,447.37000000011176 L791.4899999999616,427.5200000004843 L781,403.31000000052154 "/>
   <path id="ID19084822"
         fill="none"
         stroke="#d55"
         stroke-width="13px"
         stroke-linejoin="round"
         stroke-linecap="round"
         d="M978.0299999999988,374.320000000298 L990.1499999999651,401.1100000003353 L996.859999999986,416.56000000052154 L1007.3899999999849,440.3099999995902 L1018.6899999999732,464.26999999955297 "/>
   <path id="ID19084845"
         fill="none"
         stroke="#d55"
         stroke-width="13px"
         stroke-linejoin="round"
         stroke-linecap="round"
         d="M791.4899999999616,427.5200000004843 L872.9399999999732,413.089999999851 L978.0299999999988,374.320000000298 "/>
   <path id="ID19084860"
         fill="none"
         stroke="#d55"
         stroke-width="13px"
         stroke-linejoin="round"
         stroke-linecap="round"
         d="M994.8299999999872,367.64000000059605 L978.0299999999988,374.320000000298 "/>
   <path id="ID24239293"
         fill="none"
         stroke="#d55"
         stroke-width="13px"
         stroke-linejoin="round"
         stroke-linecap="round"
         d="M74.80999999999767,558.3899999996647 L40.87999999997555,581.4000000003725 "/>
   <path id="ID24359420"
         fill="none"
         stroke="#d55"
         stroke-width="16px"
         stroke-linejoin="round"
         stroke-linecap="round"
         d="M492.9299999999639,543.089999999851 L561.1599999999744,609.0900000007823 L600.3399999999965,647.730000000447 L609.8899999999849,657.6399999996647 L619.4899999999907,667.2000000001863 L680.6499999999651,725.890000000596 L716.0499999999884,762.7000000001863 "/>
   <path id="ID24396140"
         fill="none"
         stroke="#d55"
         stroke-width="13px"
         stroke-linejoin="round"
         stroke-linecap="round"
         d="M40.87999999997555,581.4000000003725 L-3.620000000053551,613.9699999997392 "/>
   <path id="ID25874443"
         fill="none"
         stroke="#d55"
         stroke-width="13px"
         stroke-linejoin="round"
         stroke-linecap="round"
         d="M1290.1299999999756,624.4400000004098 L1411.6499999999942,531.7099999999627 "/>
   <path id="ID25874505"
         fill="none"
         stroke="#d55"
         stroke-width="13px"
         stroke-linejoin="round"
         stroke-linecap="round"
         d="M1340.0699999999779,509.820000000298 L1230.179999999993,593.9500000001863 "/>
   <path id="ID25974236"
         fill="none"
         stroke="#d55"
         stroke-width="13px"
         stroke-linejoin="round"
         stroke-linecap="round"
         d="M845.0799999999872,545.8099999995902 L953.6299999999464,627.5300000002608 "/>
   <path id="ID26230163"
         fill="none"
         stroke="#d55"
         stroke-width="13px"
         stroke-linejoin="round"
         stroke-linecap="round"
         d="M1376.9499999999825,158.06000000052154 L1381.3699999999953,164.48000000044703 L1399.0299999999988,198.24000000022352 "/>
   <path id="ID26230173"
         fill="none"
         stroke="#d55"
         stroke-width="13px"
         stroke-linejoin="round"
         stroke-linecap="round"
         d="M1562.6199999999662,153.97000000067055 L1399.0299999999988,198.24000000022352 "/>
   <path id="ID30053153"
         fill="none"
         stroke="#d55"
         stroke-width="13px"
         stroke-linejoin="round"
         stroke-linecap="round"
         d="M65.52999999999884,258.81000000052154 L113.70999999996275,234.910000000149 L156.5100000000093,220.1800000006333 "/>
   <path id="ID30053169"
         fill="none"
         stroke="#d55"
         stroke-width="13px"
         stroke-linejoin="round"
         stroke-linecap="round"
         d="M-76.67000000004191,158.2700000004843 L-7.840000000025611,187.2700000004843 L32.11999999996624,207.660000000149 L35.75999999998021,209.87999999988824 L48.20999999996275,217.74000000022352 "/>
   <path id="ID30053212"
         fill="none"
         stroke="#d55"
         stroke-width="13px"
         stroke-linejoin="round"
         stroke-linecap="round"
         d="M32.11999999996624,207.660000000149 L102.51999999998952,171.28000000026077 "/>
   <path id="ID32512496"
         fill="none"
         stroke="#d55"
         stroke-width="13px"
         stroke-linejoin="round"
         stroke-linecap="round"
         d="M39.02999999996973,121.03000000026077 L49.10999999998603,117.1800000006333 L56.579999999987194,115.66000000014901 L64.26999999996042,117.13000000081956 L138.20999999996275,131.97000000067055 L206.40999999994528,146.29999999981374 L292.8199999999779,169.5 L316.36999999999534,174.5 L353.6599999999744,181.22000000067055 L386.4099999999744,182.50000000093132 L432.2399999999907,189.25999999977648 L443.6699999999837,190.14000000059605 L453.9199999999837,190.32000000029802 L466.46999999997206,190.1699999999255 "/>
   <path id="ID32708173"
         fill="none"
         stroke="#d55"
         stroke-width="13px"
         stroke-linejoin="round"
         stroke-linecap="round"
         d="M960.2199999999721,59.169999999925494 L906.1099999999569,92.61000000033528 "/>
   <path id="ID36781609"
         fill="none"
         stroke="#d55"
         stroke-width="13px"
         stroke-linejoin="round"
         stroke-linecap="round"
         d="M1437.109999999986,-14.5699999993667 L1448.2399999999907,3.099999999627471 L1318.5499999999884,32.09999999962747 "/>
   <path id="ID40797439"
         fill="none"
         stroke="#d55"
         stroke-width="13px"
         stroke-linejoin="round"
         stroke-linecap="round"
         d="M1393.1199999999953,348.7599999997765 L1394.109999999957,344.6699999999255 L1396.1000000000058,341.75 L1400.4199999999837,339.2400000002235 L1428.5499999999593,327.04000000003725 L1431.6299999999756,324.4900000002235 L1433.7099999999919,321.8899999996647 L1435.8899999999849,315.0099999997765 L1432.929999999993,294.51999999955297 L1430.8499999999767,259.1000000005588 L1422.8299999999872,229.88999999966472 L1399.0299999999988,198.24000000022352 "/>
   <path id="ID40870575"
         fill="none"
         stroke="#d55"
         stroke-width="13px"
         stroke-linejoin="round"
         stroke-linecap="round"
         d="M1211.219999999972,12.850000000558794 L1273.179999999993,39.360000000335276 L1319.7299999999814,66.74000000022352 L1325.4899999999616,66.83999999985099 L1333.9199999999837,65.00999999977648 "/>
   <path id="ID40870588"
         fill="none"
         stroke="#d55"
         stroke-width="13px"
         stroke-linejoin="round"
         stroke-linecap="round"
         d="M893.7799999999988,250.37999999988824 L1038.9799999999814,187.20000000018626 L1315.579999999958,70.28000000026077 L1319.7299999999814,66.74000000022352 "/>
   <path id="ID42692797"
         fill="none"
         stroke="#d55"
         stroke-width="13px"
         stroke-linejoin="round"
         stroke-linecap="round"
         d="M1038.9799999999814,187.20000000018626 L1005.25,160.82000000029802 "/>
   <path id="ID59095997"
         fill="none"
         stroke="#d55"
         stroke-width="13px"
         stroke-linejoin="round"
         stroke-linecap="round"
         d="M-142.5800000000454,261.9799999995157 L-130.34000000005472,267.81000000052154 L105.96999999997206,403.3300000000745 "/>
   <path id="ID59095998"
         fill="none"
         stroke="#d55"
         stroke-width="16px"
         stroke-linejoin="round"
         stroke-linecap="round"
         d="M105.96999999997206,403.3300000000745 L98.02999999996973,408.78000000026077 "/>
   <path id="ID59095999"
         fill="none"
         stroke="#d55"
         stroke-width="13px"
         stroke-linejoin="round"
         stroke-linecap="round"
         d="M82.89999999999418,324.6699999999255 L136.1799999999639,305.320000000298 "/>
   <path id="ID69892561"
         fill="none"
         stroke="#d55"
         stroke-width="16px"
         stroke-linejoin="round"
         stroke-linecap="round"
         d="M1423.4199999999546,66.54000000003725 L1448.6299999999464,55.82000000029802 L1454.899999999965,51.89000000059605 L1470.6199999999953,33.64000000059605 L1475.1199999999953,29.40000000037253 L1483.3199999999779,25.690000000409782 L1523.8199999999488,19.740000000223517 L1528.3899999999849,41.79000000003725 L1531.3399999999674,50.85000000055879 L1540.249999999971,59.03000000026077 L1551.7200000000012,67.5 "/>
   <path id="ID69892565"
         fill="none"
         stroke="#d55"
         stroke-width="13px"
         stroke-linejoin="round"
         stroke-linecap="round"
         d="M1288.9700000000012,117.62000000011176 L1320.9499999999825,150.1699999999255 "/>
   <path id="ID69892574"
         fill="none"
         stroke="#d55"
         stroke-width="13px"
         stroke-linejoin="round"
         stroke-linecap="round"
         d="M987.5899999999674,24.929999999701977 L996.7699999999604,34.1800000006333 L998.3800000000047,41.200000000186265 L990.8099999999977,53.17000000085682 L987.5899999999674,58.17999999970198 L991.3399999999674,64.36000000033528 L1038.5999999999767,98.40000000037253 "/>
   <path id="ID69892577"
         fill="none"
         stroke="#d55"
         stroke-width="16px"
         stroke-linejoin="round"
         stroke-linecap="round"
         d="M380.63999999995576,362.5200000004843 L425.9400000000023,389.179999999702 "/>
   <path id="ID69892580"
         fill="none"
         stroke="#d55"
         stroke-width="13px"
         stroke-linejoin="round"
         stroke-linecap="round"
         d="M451.4199999999837,370.93999999947846 L447.77999999999884,373.7700000004843 L429.70999999999185,386.15000000037253 L425.9400000000023,389.179999999702 "/>
   <path id="ID69892585"
         fill="none"
         stroke="#d55"
         stroke-width="13px"
         stroke-linejoin="round"
         stroke-linecap="round"
         d="M583.8399999999965,464.3500000005588 L416.9999999999709,516.0099999997765 "/>
   <path id="ID69892590"
         fill="none"
         stroke="#d55"
         stroke-width="13px"
         stroke-linejoin="round"
         stroke-linecap="round"
         d="M794.6999999999534,506.70999999996275 L727.4299999999639,538.2400000002235 "/>
   <path id="ID69892600"
         fill="none"
         stroke="#d55"
         stroke-width="13px"
         stroke-linejoin="round"
         stroke-linecap="round"
         d="M1182.649999999965,617.4599999999627 L1125.9599999999627,581.4900000002235 "/>
   <path id="ID69892601"
         fill="none"
         stroke="#d55"
         stroke-width="13px"
         stroke-linejoin="round"
         stroke-linecap="round"
         d="M1021.5899999999674,547.320000000298 L1038.0099999999802,537.6900000004098 L1040.0499999999593,530.7800000002608 L1054.539999999979,523.1200000001118 "/>
   <path id="ID69892602"
         fill="none"
         stroke="#d55"
         stroke-width="13px"
         stroke-linejoin="round"
         stroke-linecap="round"
         d="M1022.4399999999732,503.5599999995902 L1039.9500000000116,515.9199999999255 L1049.8799999999464,519.5499999998137 L1054.539999999979,523.1200000001118 L1064.9499999999825,525.3500000005588 L1091.5999999999767,543.0200000004843 "/>
   <path id="ID69892603"
         fill="none"
         stroke="#d55"
         stroke-width="13px"
         stroke-linejoin="round"
         stroke-linecap="round"
         d="M1326.8499999999476,444.48000000044703 L1318.3899999999849,441.70999999996275 L1272.649999999965,447.679999999702 L1231.0699999999779,456.5800000000745 L1218.7399999999616,459.9400000004098 L1210.3499999999767,460.1699999999255 L1197.2299999999814,458.54000000003725 "/>
   <path id="ID69892605"
         fill="none"
         stroke="#d55"
         stroke-width="13px"
         stroke-linejoin="round"
         stroke-linecap="round"
         d="M1036.1000000000058,387.78000000026077 L1131.3899999999558,372.38000000081956 "/>
   <path id="ID69915688"
         fill="none"
         stroke="#d55"
         stroke-width="13px"
         stroke-linejoin="round"
         stroke-linecap="round"
         d="M1161.4799999999814,50.90000000037253 L1074.7399999999907,-7.679999999701977 "/>
   <path id="ID70220742"
         fill="none"
         stroke="#d55"
         stroke-width="16px"
         stroke-linejoin="round"
         stroke-linecap="round"
         d="M55.96999999997206,47.760000000707805 L64.35999999998603,45.419999999925494 L72.53999999997905,45.34999999962747 L208.1599999999744,71.70000000018626 L254.55999999996857,83.25 L298.6599999999744,96.66000000014901 L341.3299999999872,109.70000000018626 L385.29999999998836,120.3300000000745 L415.7600000000093,124.77000000048429 L445.38999999998487,128.1499999994412 L469.86999999999534,127.39000000059605 L494.13999999998487,124.04000000003725 L520.7299999999814,118.72000000067055 L577.2699999999895,106.53000000026077 L661.5999999999476,87.5 L721.0499999999593,71.69000000040978 L740.0599999999977,63.78000000026077 L757.1299999999756,53.55999999959022 L824.2499999999709,0.1299999998882413 L835.4899999999907,-14.75 L837.7199999999721,-20.139999999664724 L838.5299999999988,-24.37999999988824 L837.6300000000047,-31.200000000186265 L813.1799999999639,-80.09999999962747 L807.1300000000047,-91.40999999921769 "/>
   <path id="ID71643669"
         fill="none"
         stroke="#d55"
         stroke-width="13px"
         stroke-linejoin="round"
         stroke-linecap="round"
         d="M643.0399999999499,423.34999999962747 L781,403.31000000052154 L846.2999999999884,392.6699999999255 "/>
   <path id="ID72343201"
         fill="none"
         stroke="#d55"
         stroke-width="13px"
         stroke-linejoin="round"
         stroke-linecap="round"
         d="M779.0199999999895,577.2000000001863 L893.4499999999825,663.140000000596 "/>
   <path id="ID72343207"
         fill="none"
         stroke="#d55"
         stroke-width="16px"
         stroke-linejoin="round"
         stroke-linecap="round"
         d="M693.1900000000023,592.7000000001863 L655.7399999999616,565.6399999996647 L585.4199999999837,511.070000000298 "/>
   <path id="ID72343246"
         fill="none"
         stroke="#d55"
         stroke-width="13px"
         stroke-linejoin="round"
         stroke-linecap="round"
         d="M853.3299999999581,55.92999999970198 L906.1099999999569,92.61000000033528 L950.8199999999779,121.09000000078231 "/>
   <path id="ID72343250"
         fill="none"
         stroke="#d55"
         stroke-width="13px"
         stroke-linejoin="round"
         stroke-linecap="round"
         d="M927.1999999999534,530.0200000004843 L935.0399999999499,535.4900000002235 L1015.0099999999511,591.3499999996275 "/>
   <path id="ID72343257"
         fill="none"
         stroke="#d55"
         stroke-width="13px"
         stroke-linejoin="round"
         stroke-linecap="round"
         d="M1059.7099999999919,623.2400000002235 L1068.9899999999907,617.089999999851 L1108.2299999999814,592.7700000004843 L1114.53999999995,588.25 L1125.9599999999627,581.4900000002235 L1145.179999999964,569.160000000149 L1161.3899999999849,558.7599999997765 "/>
   <path id="ID80931404"
         fill="none"
         stroke="#d55"
         stroke-width="10px"
         stroke-linejoin="round"
         stroke-linecap="round"
         d="M127.20999999999185,583.4300000006333 L118.59999999994761,583.160000000149 "/>
   <path id="ID80931410"
         fill="none"
         stroke="#d55"
         stroke-width="13px"
         stroke-linejoin="round"
         stroke-linecap="round"
         d="M40.87999999997555,581.4000000003725 L92.40999999997439,608.8300000000745 "/>
   <path id="ID81796558"
         fill="none"
         stroke="#d55"
         stroke-width="13px"
         stroke-linejoin="round"
         stroke-linecap="round"
         d="M327.2699999999604,-531.2999999998137 L320.63999999995576,-480.26999999955297 L312.5799999999581,-422.4199999999255 L306.78999999997905,-384.5599999995902 L299.2499999999709,-352.5699999993667 L292.5699999999779,-323.0800000000745 L283.2499999999709,-292.7599999997765 L251.4199999999546,-242.5 L224.4099999999744,-210.99000000022352 L202.75,-193.00999999977648 L188.95999999996275,-185.0800000000745 L173.6799999999639,-177.589999999851 L160.7599999999802,-167.28000000026077 L102.05999999996857,-89.62999999988824 L57.95999999999185,-22.5 L50.01999999996042,-4.870000000111759 L45.60999999998603,19.470000000670552 L47.82999999995809,32.14000000059605 L48.509999999951106,34.450000000186265 L55.96999999997206,47.760000000707805 "/>
   <path id="ID85445264"
         fill="none"
         stroke="#d55"
         stroke-width="13px"
         stroke-linejoin="round"
         stroke-linecap="round"
         d="M198.12999999994645,-16.610000000335276 L263.69999999998254,5.910000000149012 L441.54000000000815,71.0800000000745 L490.7599999999511,86.23000000044703 L561.1199999999662,101.58999999985099 L577.2699999999895,106.53000000026077 "/>
   <path id="ID85514941"
         fill="none"
         stroke="#d55"
         stroke-width="13px"
         stroke-linejoin="round"
         stroke-linecap="round"
         d="M28.959999999962747,105.5100000007078 L32.39999999999418,91.0800000000745 L37.52999999996973,70.4199999999255 L42.97999999998137,57.110000000335276 L49.139999999984866,51.94000000040978 L55.96999999997206,47.760000000707805 "/>
   <path id="ID85514950"
         fill="none"
         stroke="#d55"
         stroke-width="16px"
         stroke-linejoin="round"
         stroke-linecap="round"
         d="M5.629999999975553,97.92000000085682 L-2.470000000001164,101.96999999973923 L-23.510000000038417,112.74000000022352 "/>
   <path id="ID85514951"
         fill="none"
         stroke="#d55"
         stroke-width="20px"
         stroke-linejoin="round"
         stroke-linecap="round"
         d="M-27.120000000024447,43.60000000055879 L-9.370000000053551,62.52000000048429 L2.8399999999674037,77.91000000014901 L7.499999999970896,83.57000000029802 "/>
   <path id="ID85514954"
         fill="none"
         stroke="#d55"
         stroke-width="20px"
         stroke-linejoin="round"
         stroke-linecap="round"
         d="M28.959999999962747,105.5100000007078 L30.35999999998603,113.8300000000745 "/>
   <path id="ID85514958"
         fill="none"
         stroke="#d55"
         stroke-width="20px"
         stroke-linejoin="round"
         stroke-linecap="round"
         d="M30.35999999998603,113.8300000000745 L22.789999999979045,108.97000000067055 L5.629999999975553,97.92000000085682 "/>
   <path id="ID85514959"
         fill="none"
         stroke="#d55"
         stroke-width="20px"
         stroke-linejoin="round"
         stroke-linecap="round"
         d="M7.499999999970896,83.57000000029802 L5.629999999975553,97.92000000085682 "/>
   <path id="ID85514963"
         fill="none"
         stroke="#d55"
         stroke-width="20px"
         stroke-linejoin="round"
         stroke-linecap="round"
         d="M30.35999999998603,113.8300000000745 L32.68999999994412,115.54000000003725 L39.02999999996973,121.03000000026077 L100.89999999996508,169.95999999996275 L102.51999999998952,171.28000000026077 L125.98999999999069,190.32000000029802 L156.5100000000093,220.1800000006333 L163.44999999995343,231.09999999962747 L177.4899999999907,250.5800000000745 L183.93999999994412,262.339999999851 L195.89999999996508,287.29999999981374 L214.7499999999709,322.1699999999255 L255.13999999995576,405.3400000007823 "/>
   <path id="ID85515083"
         fill="none"
         stroke="#d55"
         stroke-width="10px"
         stroke-linejoin="round"
         stroke-linecap="round"
         d="M37.52999999996973,70.4199999999255 L31.07999999995809,71.42000000085682 L11.109999999956926,75.70000000018626 L2.8399999999674037,77.91000000014901 "/>
   <path id="ID93280982"
         fill="none"
         stroke="#d55"
         stroke-width="10px"
         stroke-linejoin="round"
         stroke-linecap="round"
         d="M208.5099999999802,581.089999999851 L224.5100000000093,589.6200000001118 "/>
   <path id="ID93280992"
         fill="none"
         stroke="#d55"
         stroke-width="13px"
         stroke-linejoin="round"
         stroke-linecap="round"
         d="M50.98999999999069,444.1399999996647 L62.59999999997672,447.410000000149 L75.35000000000582,453.20999999996275 L271.8499999999767,563.7599999997765 L318.9799999999814,591.7400000002235 "/>
   <path id="ID93281811"
         fill="none"
         stroke="#d55"
         stroke-width="13px"
         stroke-linejoin="round"
         stroke-linecap="round"
         d="M276.2699999999895,599.589999999851 L273.4100000000035,596.7199999997392 L266.6599999999744,593.8100000005215 L234.81999999994878,590.6500000003725 L224.5100000000093,589.6200000001118 L203.5099999999802,587.5400000000373 L127.20999999999185,583.4300000006333 "/>
   <path id="ID94255688"
         fill="none"
         stroke="#d55"
         stroke-width="13px"
         stroke-linejoin="round"
         stroke-linecap="round"
         d="M721.6999999999534,533.8600000003353 L727.4299999999639,538.2400000002235 L779.0199999999895,577.2000000001863 "/>
   <path id="ID106678895"
         fill="none"
         stroke="#d55"
         stroke-width="13px"
         stroke-linejoin="round"
         stroke-linecap="round"
         d="M248.9899999999907,669.5600000005215 L263.28999999997905,646.1100000003353 L277.04999999998836,603.5200000004843 L276.2699999999895,599.589999999851 "/>
   <path id="ID107379155"
         fill="none"
         stroke="#d55"
         stroke-width="13px"
         stroke-linejoin="round"
         stroke-linecap="round"
         d="M-33.64000000001397,251.09999999962747 L31.449999999982538,212.44000000040978 "/>
   <path id="ID107379156"
         fill="none"
         stroke="#d55"
         stroke-width="13px"
         stroke-linejoin="round"
         stroke-linecap="round"
         d="M132.63999999998487,154.30999999959022 L100.89999999996508,169.95999999996275 "/>
   <path id="ID107585052"
         fill="none"
         stroke="#d55"
         stroke-width="13px"
         stroke-linejoin="round"
         stroke-linecap="round"
         d="M1049.8799999999464,519.5499999998137 L1057.0899999999674,515.3999999994412 L1079.929999999993,502.23000000044703 L1126.429999999993,475.410000000149 "/>
   <path id="ID110209175"
         fill="none"
         stroke="#d55"
         stroke-width="13px"
         stroke-linejoin="round"
         stroke-linecap="round"
         d="M853.3299999999581,55.92999999970198 L874.8499999999767,36.41000000014901 L876.7999999999884,32.44000000040978 L877.3399999999674,28.84000000078231 L859.1399999999558,0.44000000040978193 L849.9199999999546,-12.009999999776483 L842.679999999993,-14 L835.4899999999907,-14.75 "/>
   <path id="ID112797057"
         fill="none"
         stroke="#d55"
         stroke-width="13px"
         stroke-linejoin="round"
         stroke-linecap="round"
         d="M216.35999999995693,407.570000000298 L230.19999999995343,411.54999999981374 L245.38999999998487,413.73000000044703 L249.80999999996857,411.9799999995157 L254.0799999999581,410.12999999988824 "/>
   <path id="ID143650491"
         fill="none"
         stroke="#d55"
         stroke-width="13px"
         stroke-linejoin="round"
         stroke-linecap="round"
         d="M859.2499999999709,222.14000000059605 L893.7799999999988,250.37999999988824 L910.6999999999534,266.12000000011176 L927.0099999999511,279.5599999995902 L953.1699999999546,300.53000000026077 L978.1499999999651,321.31000000052154 "/>
   <path id="ID146712409"
         fill="none"
         stroke="#d55"
         stroke-width="13px"
         stroke-linejoin="round"
         stroke-linecap="round"
         d="M-90.39000000001397,232.81000000052154 L-33.64000000001397,251.09999999962747 L-9.330000000016298,260.96999999973923 L5.9100000000034925,268.05000000074506 L23.739999999990687,278.98000000044703 L38.70999999996275,289.1699999999255 L47.429999999993015,295.12000000011176 L55.19999999998254,300.4199999999255 L68.54999999998836,311.0400000009686 L82.89999999999418,324.6699999999255 "/>
   <path id="ID146712416"
         fill="none"
         stroke="#d55"
         stroke-width="13px"
         stroke-linejoin="round"
         stroke-linecap="round"
         d="M216.35999999995693,407.570000000298 L231.38999999998487,415.03000000026077 L248.04999999998836,421 L261.5799999999872,422.6000000005588 "/>
   <path id="ID146712422"
         fill="none"
         stroke="#d55"
         stroke-width="13px"
         stroke-linejoin="round"
         stroke-linecap="round"
         d="M82.89999999999418,324.6699999999255 L93.76999999996042,336.4199999999255 L109.46999999997206,349.9400000004098 L129.3299999999872,363.9300000006333 L140.89999999996508,372.75 L143.02999999999884,374.31000000052154 L155.19999999995343,380.79000000003725 L216.35999999995693,407.570000000298 "/>
   <path id="ID146712428"
         fill="none"
         stroke="#d55"
         stroke-width="13px"
         stroke-linejoin="round"
         stroke-linecap="round"
         d="M261.5799999999872,422.6000000005588 L269.77999999996973,421.21000000089407 L286.3299999999872,417.6800000006333 L324.2399999999907,395.80000000074506 L333.95999999996275,390.48000000044703 L380.63999999995576,362.5200000004843 L416.1799999999639,340.29000000003725 L426.5999999999767,336.2700000004843 L432.46999999997206,334.81000000052154 L437.47000000000116,334.1499999994412 L449.47999999995227,334.570000000298 L454.05999999996857,336.4400000004098 L466.3599999999569,344.54000000003725 L486.7599999999802,359.87999999988824 L488.9099999999744,360.79000000003725 L491.04999999995925,361.0100000007078 "/>
   <path id="ID154351381"
         fill="none"
         stroke="#d55"
         stroke-width="18px"
         stroke-linejoin="round"
         stroke-linecap="round"
         d="M347.71999999997206,577.2999999998137 L371.95999999996275,571.8100000005215 L397.3299999999581,565.25 L492.9299999999639,543.089999999851 L513.6999999999825,538.3800000008196 L524.2399999999616,535.1299999998882 L585.4199999999837,511.070000000298 L634.2799999999988,491.51999999955297 L650.7699999999604,484.910000000149 L655.6299999999464,483.37000000011176 L672.4699999999721,477.45000000018626 L686.6399999999558,475.21999999973923 L699.3999999999651,474.5200000004843 L808.4699999999721,473.6399999996647 L889.1699999999837,472.71000000089407 L926.2599999999802,470.8600000003353 L962.1799999999639,467.8600000003353 L989.3199999999779,468.37000000011176 "/>
   <path id="ID154352301"
         fill="none"
         stroke="#d55"
         stroke-width="18px"
         stroke-linejoin="round"
         stroke-linecap="round"
         d="M1393.1199999999953,348.7599999997765 L1368.469999999972,348.2400000002235 L1341.9799999999814,347.73000000044703 "/>
   <path id="ID154352302"
         fill="none"
         stroke="#d55"
         stroke-width="13px"
         stroke-linejoin="round"
         stroke-linecap="round"
         d="M1393.1199999999953,348.7599999997765 L1393.039999999979,360.5800000000745 L1399.7900000000081,375.6900000004098 L1408.1199999999662,384.820000000298 L1420.6699999999837,392.70999999996275 L1435.429999999993,399.6699999999255 L1453.149999999965,406.04000000003725 L1478.6199999999953,413.21999999973923 "/>
   <path id="ID154352304"
         fill="none"
         stroke="#d55"
         stroke-width="18px"
         stroke-linejoin="round"
         stroke-linecap="round"
         d="M1658.3199999999779,373.1100000003353 L1622.9199999999546,370.23000000044703 L1615.859999999957,369.59999999962747 L1605.070000000007,368.6399999996647 L1576.78999999995,365.9900000002235 L1554.5599999999686,363.78000000026077 L1536.1499999999942,362.0200000004843 L1511.0299999999697,359.45999999996275 L1393.1199999999953,348.7599999997765 "/>
   <path id="ID167288992"
         fill="none"
         stroke="#d55"
         stroke-width="13px"
         stroke-linejoin="round"
         stroke-linecap="round"
         d="M1032.5499999999884,265.4400000004098 L1027.1699999999837,266.89000000059605 L953.1699999999546,300.53000000026077 "/>
   <path id="ID193994529"
         fill="none"
         stroke="#d55"
         stroke-width="16px"
         stroke-linejoin="round"
         stroke-linecap="round"
         d="M310.46999999997206,791.7599999997765 L339.13999999998487,779.4900000002235 L368.3999999999651,766.7599999997765 L470.44999999998254,720.820000000298 L475.11999999996624,718.7000000001863 L595.3499999999767,663.8600000003353 L609.8899999999849,657.6399999996647 L623.9099999999453,650.6500000003725 L712.4999999999709,608.2599999997765 L779.0199999999895,577.2000000001863 L845.0799999999872,545.8099999995902 L907.7799999999988,516.410000000149 L951.3699999999662,492.23000000044703 L981.6799999999639,475.8500000005588 L989.3199999999779,468.37000000011176 "/>
   <path id="ID193994549"
         fill="none"
         stroke="#d55"
         stroke-width="13px"
         stroke-linejoin="round"
         stroke-linecap="round"
         d="M-21.929999999993015,501.54000000003725 L74.80999999999767,558.3899999996647 L116.35999999998603,580.390000000596 L118.59999999994761,583.160000000149 "/>
   <path id="ID193994552"
         fill="none"
         stroke="#d55"
         stroke-width="13px"
         stroke-linejoin="round"
         stroke-linecap="round"
         d="M595.3299999999581,342.3099999995902 L631.8499999999767,320.0800000000745 L648.9899999999907,310.410000000149 L715.0699999999779,281.6000000005588 L818.4199999999837,238.12000000011176 L859.2499999999709,222.14000000059605 L1005.25,160.82000000029802 "/>
   <path id="ID193994558"
         fill="none"
         stroke="#d55"
         stroke-width="13px"
         stroke-linejoin="round"
         stroke-linecap="round"
         d="M490.3299999999872,406.45000000018626 L533.0299999999697,408.87999999988824 L537.0799999999872,409.9199999999255 L539.4700000000012,411.48000000044703 L542.0899999999674,414.5200000004843 L546.7299999999814,423.53000000026077 L549.8299999999581,434.1900000004098 L549.109999999986,436.12000000011176 L528.1499999999651,453.04000000003725 "/>
   <path id="ID202761565"
         fill="none"
         stroke="#d55"
         stroke-width="18px"
         stroke-linejoin="round"
         stroke-linecap="round"
         d="M989.3199999999779,468.37000000011176 L1004.8399999999965,466.56000000052154 L1018.6899999999732,464.26999999955297 L1068.7699999999895,454.3300000000745 L1141.2799999999988,435.90000000037253 L1158.0599999999686,431.570000000298 L1218.5999999999767,412.48000000044703 L1241.8499999999767,403.9900000002235 L1251.8099999999686,400.25 L1318.9199999999546,370.910000000149 L1327.0299999999697,367.40000000037253 L1334.1000000000058,362.179999999702 L1339.2799999999988,355.4900000002235 L1341.9799999999814,347.73000000044703 "/>
   <path id="ID203007442"
         fill="none"
         stroke="#d55"
         stroke-width="20px"
         stroke-linejoin="round"
         stroke-linecap="round"
         d="M7.499999999970896,83.57000000029802 L19.899999999965075,96.16000000014901 L28.959999999962747,105.5100000007078 "/>
   <path id="ID326353083"
         fill="none"
         stroke="#d55"
         stroke-width="13px"
         stroke-linejoin="round"
         stroke-linecap="round"
         d="M1171.109999999986,258.20000000018626 L1158.009999999951,238.6000000005588 "/>
   <path id="ID326353145"
         fill="none"
         stroke="#d55"
         stroke-width="13px"
         stroke-linejoin="round"
         stroke-linecap="round"
         d="M1241.8499999999767,403.9900000002235 L1225.8899999999849,388.87999999988824 "/>
   <path id="ID326353146"
         fill="none"
         stroke="#d55"
         stroke-width="13px"
         stroke-linejoin="round"
         stroke-linecap="round"
         d="M1220.8099999999977,376.87000000011176 L1215.7699999999895,366.90000000037253 "/>
   <path id="ID326353147"
         fill="none"
         stroke="#d55"
         stroke-width="13px"
         stroke-linejoin="round"
         stroke-linecap="round"
         d="M1225.8899999999849,388.87999999988824 L1220.8099999999977,376.87000000011176 "/>
   <path id="ID326353148"
         fill="none"
         stroke="#d55"
         stroke-width="13px"
         stroke-linejoin="round"
         stroke-linecap="round"
         d="M1199.609999999957,370.23000000044703 L1215.7699999999895,366.90000000037253 L1237.899999999965,361.5800000000745 L1223.9199999999546,331.5900000007823 "/>
   <path id="ID368374759"
         fill="none"
         stroke="#d55"
         stroke-width="13px"
         stroke-linejoin="round"
         stroke-linecap="round"
         d="M953.2599999999802,122.5 L984.2899999999499,141.89000000059605 L990.1399999999849,144.25 L989.8699999999662,145.660000000149 L990.6099999999569,148.19000000040978 L1005.25,160.82000000029802 "/>
   <path id="ID382309931"
         fill="none"
         stroke="#d55"
         stroke-width="20px"
         stroke-linejoin="round"
         stroke-linecap="round"
         d="M5.629999999975553,97.92000000085682 L-5.670000000012806,84.65000000037253 "/>
   <path id="ID382893358"
         fill="none"
         stroke="#d55"
         stroke-width="20px"
         stroke-linejoin="round"
         stroke-linecap="round"
         d="M346.2499999999709,600.9599999999627 L346.9799999999814,590.9199999999255 L347.71999999997206,577.2999999998137 "/>
   <path id="ID386569901"
         fill="none"
         stroke="#d55"
         stroke-width="13px"
         stroke-linejoin="round"
         stroke-linecap="round"
         d="M655.6299999999464,483.37000000011176 L719.4399999999732,532.1299999998882 "/>
   <path id="ID396598742"
         fill="none"
         stroke="#d55"
         stroke-width="20px"
         stroke-linejoin="round"
         stroke-linecap="round"
         d="M344.62999999997555,620.5300000002608 L346.2499999999709,600.9599999999627 "/>
   <path id="ID473453178"
         fill="none"
         stroke="#d55"
         stroke-width="10px"
         stroke-linejoin="round"
         stroke-linecap="round"
         d="M44.55999999996857,53.480000000447035 L45.59999999997672,53.830000000074506 L53.94999999998254,47.27000000048429 L53.57999999995809,45.830000000074506 L51.96999999997206,43.91000000014901 L48.01999999996042,42.700000000186265 L44.55999999996857,53.480000000447035 "/>
   <path id="ID477173954"
         fill="none"
         stroke="#d55"
         stroke-width="13px"
         stroke-linejoin="round"
         stroke-linecap="round"
         d="M208.1599999999744,71.70000000018626 L209.47999999998137,59.20999999996275 L198.54999999998836,0.09999999962747097 L198.12999999994645,-16.610000000335276 "/>
   <path id="ID515965765"
         fill="none"
         stroke="#d55"
         stroke-width="16px"
         stroke-linejoin="round"
         stroke-linecap="round"
         d="M1251.8099999999686,400.25 L1256.5799999999872,407.1100000003353 L1256.2200000000012,409.5400000009686 L1254.679999999993,412.070000000298 L1211.2399999999907,447.37999999988824 L1197.2299999999814,458.54000000003725 L1172.179999999993,479.4400000004098 L1115.4400000000023,524.519999999553 L1113.2599999999802,527.1800000006333 L1110.8699999999662,533.5499999998137 "/>
   <path id="ID555572902"
         fill="none"
         stroke="#d55"
         stroke-width="20px"
         stroke-linejoin="round"
         stroke-linecap="round"
         d="M255.13999999995576,405.3400000007823 L262.6499999999651,408.5 L265.94999999998254,414.81000000052154 L269.77999999996973,421.21000000089407 L279.02999999999884,438.79000000003725 L277.03999999994994,443.14000000059605 "/>
   <path id="ID555572903"
         fill="none"
         stroke="#d55"
         stroke-width="20px"
         stroke-linejoin="round"
         stroke-linecap="round"
         d="M277.03999999994994,443.14000000059605 L289.9100000000035,466.95000000018626 L338.5899999999965,560.5 L347.71999999997206,577.2999999998137 "/>
   <path id="ID555572904"
         fill="none"
         stroke="#d55"
         stroke-width="20px"
         stroke-linejoin="round"
         stroke-linecap="round"
         d="M277.03999999994994,443.14000000059605 L269.2299999999814,438.95000000018626 L266.38000000000466,433.29000000003725 L261.5799999999872,422.6000000005588 L254.0799999999581,410.12999999988824 L255.13999999995576,405.3400000007823 "/>
   <path id="ID564466646"
         fill="none"
         stroke="#d55"
         stroke-width="16px"
         stroke-linejoin="round"
         stroke-linecap="round"
         d="M1396.2299999999523,152.2700000004843 L1379.4599999999627,156.42999999970198 "/>
   <path id="ID564466647"
         fill="none"
         stroke="#d55"
         stroke-width="16px"
         stroke-linejoin="round"
         stroke-linecap="round"
         d="M1378.9899999999907,151.98000000044703 L1396.2299999999523,152.2700000004843 "/>
   <path id="ID564466648"
         fill="none"
         stroke="#d55"
         stroke-width="18px"
         stroke-linejoin="round"
         stroke-linecap="round"
         d="M1370.7399999999907,139.1699999999255 L1375.719999999943,150.46000000089407 "/>
   <path id="ID564466649"
         fill="none"
         stroke="#d55"
         stroke-width="18px"
         stroke-linejoin="round"
         stroke-linecap="round"
         d="M1368.429999999993,151.660000000149 L1370.7399999999907,139.1699999999255 "/>
   <path id="ID564466650"
         fill="none"
         stroke="#d55"
         stroke-width="18px"
         stroke-linejoin="round"
         stroke-linecap="round"
         d="M1371.7799999999697,150.37000000011176 L1375.719999999943,150.46000000089407 L1378.9899999999907,151.98000000044703 L1380.2399999999616,154.17000000085682 L1379.4599999999627,156.42999999970198 L1376.9499999999825,158.06000000052154 L1373.8500000000058,158.65000000037253 L1370.679999999993,158.2700000004843 L1367.6299999999756,156.53000000026077 L1366.7699999999895,154.00999999977648 L1368.429999999993,151.660000000149 L1371.7799999999697,150.37000000011176 "/>
   <path id="ID564470898"
         fill="none"
         stroke="#d55"
         stroke-width="16px"
         stroke-linejoin="round"
         stroke-linecap="round"
         d="M1431.1999999999825,73.55999999959022 L1423.4199999999546,66.54000000003725 L1414.6999999999825,58.69000000040978 "/>
   <path id="ID564470908"
         fill="none"
         stroke="#d55"
         stroke-width="10px"
         stroke-linejoin="round"
         stroke-linecap="round"
         d="M1327.899999999965,68.38999999966472 L1329.2399999999907,70.26999999955297 L1332.859999999986,69.72999999951571 L1332.0599999999686,68.50999999977648 L1330.9199999999546,67.89000000059605 L1327.899999999965,68.38999999966472 "/>
</svg>
