<?xml version="1.0" encoding="UTF-8"?>
<svg xmlns="http://www.w3.org/2000/svg"
     xmlns:xlink="http://www.w3.org/1999/xlink"
     version="1.1"
     viewBox="-100 -60 3000 2000"
     width="1600px"
     height="1600px"
     preserveAspectRatio="none"
     id="svgroot">
   <style>
        @import url(style.css);
      </style>
   <filter id="hand-drawn">
      <feTurbulence type="turbulence"
                    baseFrequency="0.02"
                    numOctaves="1"
                    result="turbulence"/>
      <feDisplacementMap in2="turbulence"
                         in="SourceGraphic"
                         scale="4"
                         xChannelSelector="R"
                         yChannelSelector="G"/>
   </filter>
   <rect x="0"
         y="0"
         width="2214.3999999999996"
         height="1415.5999999996275"
         class="background"/>
   <path class="rail"
         id="ID4078001"
         stroke-linejoin="round"
         stroke-linecap="round"
         d="M-622.3100000000004,583.4799999995157 L-541.3100000000004,567.5599999995902 L-501.77999999999975,562.4899999992922 L-450.91000000000076,555.6999999992549 L-409.65000000000055,550.9699999997392 L-367.91999999999916,547.0999999996275 L-334.4399999999996,544.4699999997392 L-303.9800000000005,542.7499999990687 L-279.1300000000001,542.3899999996647 L-251.22000000000116,542.1199999991804 L-203.40999999999985,541.7599999988452 L-163.22000000000025,542.4399999994785 L-131.76000000000022,543.8399999989197 L-100.64999999999964,545.6499999994412 L-70.13000000000011,548.1899999994785 L-27.26000000000022,552.4399999994785 L12.429999999999382,557.4499999992549 L78.0600000000004,566.8799999989569 L120.10999999999967,573.4399999994785 L164.4999999999991,580.9199999989942 L204.6900000000005,586.4799999995157 L258.89999999999964,593.6299999989569 L316.47000000000025,597.3199999993667 L364.5499999999993,598.4099999992177 L434.60000000000036,600.859999999404 L518.7600000000002,600.9699999997392 L550.5999999999995,598.6299999989569">
      <title>4078001</title>
   </path>
   <path class="rail"
         id="ID4078007"
         stroke-linejoin="round"
         stroke-linecap="round"
         d="M1226.6799999999994,441.929999999702 L1252.9099999999999,440.87000000011176 L1287.2099999999991,440.94999999925494 L1328.1200000000008,444.1499999994412 L1376.12,448.93999999947846 L1423.4300000000003,457.95999999996275">
      <title>4078007</title>
   </path>
   <path class="rail"
         id="ID4652231"
         stroke-linejoin="round"
         stroke-linecap="round"
         d="M2547.4700000000003,-411.5100000007078 L2525.6399999999994,-378.89000000059605 L2509.95,-355.1200000010431 L2491.4400000000005,-324.87000000011176 L2446.7700000000004,-252.6900000013411 L2421.6399999999994,-212.74000000115484 L2395.9300000000003,-172.97000000067055 L2380.21,-148.1000000005588 L2351.12,-102.61000000033528 L2327.1099999999997,-64.34000000078231 L2287.91,-0.42000000085681677 L2239.17,80.99999999906868 L2228.51,98.26999999955297 L2217.63,115.10999999940395 L2209.1800000000003,127.99999999906868 L2199.7799999999997,140.93999999947846">
      <title>4652231</title>
   </path>
   <path class="rail"
         id="ID27959624"
         stroke-linejoin="round"
         stroke-linecap="round"
         d="M1531.6999999999998,468.76999999955297 L1494.3399999999992,472.33999999891967 L1457.3100000000004,475.35999999940395 L1406.88,477.839999999851 L1311.8000000000002,480.59999999962747 L1266.1699999999992,483.10999999940395 L1215.3099999999995,487.34999999962747 L1151.2300000000005,495.2299999995157 L1098.5599999999995,503.7399999992922 L1087.4300000000003,505.9599999990314">
      <title>27959624</title>
   </path>
   <path class="rail"
         id="ID72858065"
         stroke-linejoin="round"
         stroke-linecap="round"
         d="M417.6199999999999,621.4599999999627 L457.89999999999964,613.4399999994785 L496.3599999999997,608.609999999404 L539.0500000000002,605.5800000000745">
      <title>72858065</title>
   </path>
   <path class="rail"
         id="ID72858066"
         stroke-linejoin="round"
         stroke-linecap="round"
         d="M1087.4300000000003,505.9599999990314 L1066.7800000000007,511.52999999932945 L1032.039999999999,519.2599999988452 L997.04,527.6399999996647 L889.0599999999995,559.4499999992549 L849.6500000000005,570.2199999988079 L806.8800000000001,580.269999999553 L750.3899999999994,591.0999999996275 L709.5100000000002,596.5799999991432 L650.8999999999996,603.269999999553 L606.7799999999997,607.3699999991804 L553.8200000000006,610.6299999998882">
      <title>72858066</title>
   </path>
   <path class="rail"
         id="ID105176200"
         stroke-linejoin="round"
         stroke-linecap="round"
         d="M2181.38,164.50999999977648 L2169.0299999999997,177.99999999906868">
      <title>105176200</title>
   </path>
   <path class="rail"
         id="ID105176205"
         stroke-linejoin="round"
         stroke-linecap="round"
         d="M2051.5,281.93999999947846 L2026.67,300.51999999955297">
      <title>105176205</title>
   </path>
   <path class="rail"
         id="ID105176206"
         stroke-linejoin="round"
         stroke-linecap="round"
         d="M1724.3500000000004,431.3300000000745 L1665.9800000000005,445.5 L1609.5899999999992,457.0599999995902 L1554.2399999999998,465.9799999995157">
      <title>105176206</title>
   </path>
   <path class="rail"
         id="ID105176208"
         stroke-linejoin="round"
         stroke-linecap="round"
         d="M1879.6399999999994,378.08999999891967 L1860.1800000000003,386.2499999990687">
      <title>105176208</title>
   </path>
   <path class="rail"
         id="ID105176211"
         stroke-linejoin="round"
         stroke-linecap="round"
         d="M1554.2399999999998,465.9799999995157 L1531.6999999999998,468.76999999955297">
      <title>105176211</title>
   </path>
   <path class="rail"
         id="ID105176213"
         stroke-linejoin="round"
         stroke-linecap="round"
         d="M2169.0299999999997,177.99999999906868 L2136.04,211.53999999910593 L2102.0599999999995,242.37999999895692 L2073.74,264.54999999981374 L2051.5,281.93999999947846">
      <title>105176213</title>
   </path>
   <path class="rail"
         id="ID105176218"
         stroke-linejoin="round"
         stroke-linecap="round"
         d="M1744.9499999999998,425.79000000003725 L1724.3500000000004,431.3300000000745">
      <title>105176218</title>
   </path>
   <path class="rail"
         id="ID105176220"
         stroke-linejoin="round"
         stroke-linecap="round"
         d="M2026.67,300.51999999955297 L1999.2799999999997,318.35999999940395 L1978.8999999999996,330.679999999702 L1951.6099999999997,345.36999999918044 L1915.0699999999997,362.10999999940395 L1879.6399999999994,378.08999999891967">
      <title>105176220</title>
   </path>
   <path class="rail"
         id="ID105176221"
         stroke-linejoin="round"
         stroke-linecap="round"
         d="M1860.1800000000003,386.2499999990687 L1829.4899999999998,398.53999999910593 L1799.8100000000004,408.9099999992177 L1771.2600000000002,418.1499999994412 L1744.9499999999998,425.79000000003725">
      <title>105176221</title>
   </path>
   <path class="rail"
         id="ID109362714"
         stroke-linejoin="round"
         stroke-linecap="round"
         d="M539.0500000000002,605.5800000000745 L552.21,604.8899999996647">
      <title>109362714</title>
   </path>
   <path class="rail"
         id="ID164434965"
         stroke-linejoin="round"
         stroke-linecap="round"
         d="M551.409999999999,601.769999999553 L522.9399999999996,604.429999999702 L433.8299999999999,603.3299999991432 L366.72999999999956,601.7399999992922 L315.7099999999991,600.769999999553 L254.53999999999996,596.3499999996275 L199.75,589.109999999404 L151.21000000000004,582.0499999998137 L93.07999999999902,572.4499999992549 L30.579999999999018,562.5799999991432 L0.5,558.4199999989942 L-46.590000000001055,553.7999999988824 L-79.73000000000047,550.8099999995902 L-111.26000000000113,548.5499999998137 L-160.10000000000036,545.8299999991432 L-187.85999999999967,544.839999999851 L-248.90000000000055,544.929999999702 L-295.5500000000002,545.4699999988079 L-318.3699999999999,546.4699999997392 L-384.0600000000004,551.8999999994412 L-429.2500000000009,556.0599999995902 L-500.02999999999975,564.6599999992177 L-538.9800000000005,570.3699999991804 L-620.6100000000015,586.6599999992177">
      <title>164434965</title>
   </path>
   <path class="rail"
         id="ID164860835"
         stroke-linejoin="round"
         stroke-linecap="round"
         d="M1084.62,501.34999999962747 L1120.7999999999993,494.179999999702 L1158.8000000000002,487.77999999932945 L1205.6899999999996,481.92999999877065 L1251.8799999999992,477.61999999918044 L1291.8200000000006,474.8199999993667 L1348.38,471.26999999955297 L1420.29,467.7399999992922 L1481.2799999999997,464.0499999988824 L1529.79,460.10999999940395">
      <title>164860835</title>
   </path>
   <path class="rail"
         id="ID164862323"
         stroke-linejoin="round"
         stroke-linecap="round"
         d="M-84.86000000000058,1315.1499999994412 L-3.019999999999527,1207.5099999997765 L34.220000000000255,1140.7599999997765 L49.22999999999956,1094.6399999996647 L59.80000000000018,1007.9299999987707 L58.86999999999989,967.7999999988824 L57.659999999999854,915.6899999994785 L75.89999999999964,849.5599999995902 L108.08999999999924,794.75 L140.27000000000044,757.3199999993667 L201.27999999999975,711.3799999998882 L217.39000000000033,700.609999999404 L252.14999999999964,680.5499999998137 L288.1999999999989,665.1299999989569 L321.4800000000005,652.4199999989942 L351.60999999999876,642 L417.6199999999999,621.4599999999627">
      <title>164862323</title>
   </path>
   <path class="rail"
         id="ID164862324"
         stroke-linejoin="round"
         stroke-linecap="round"
         d="M202.4300000000003,596.089999999851 L165.27000000000044,590.6699999989942 L112.8100000000004,581.9799999995157 L51.039999999999054,571.839999999851">
      <title>164862324</title>
   </path>
   <path class="rail"
         id="ID164862325"
         stroke-linejoin="round"
         stroke-linecap="round"
         d="M1717.8499999999995,426.35999999940395 L1737.4899999999998,421.1699999999255">
      <title>164862325</title>
   </path>
   <path class="rail"
         id="ID164862326"
         stroke-linejoin="round"
         stroke-linecap="round"
         d="M1854.5299999999997,381.1499999994412 L1874.5599999999995,372.2299999995157">
      <title>164862326</title>
   </path>
   <path class="rail"
         id="ID164862333"
         stroke-linejoin="round"
         stroke-linecap="round"
         d="M1529.79,460.10999999940395 L1551.7699999999995,457.5799999991432">
      <title>164862333</title>
   </path>
   <path class="rail"
         id="ID164862337"
         stroke-linejoin="round"
         stroke-linecap="round"
         d="M2025.5500000000002,292.12999999988824 L2046.2699999999995,276.929999999702">
      <title>164862337</title>
   </path>
   <path class="rail"
         id="ID164862339"
         stroke-linejoin="round"
         stroke-linecap="round"
         d="M2157.62,175.87999999988824 L2167.4300000000003,164.26999999955297 L2187.21,137.60999999940395">
      <title>164862339</title>
   </path>
   <path class="rail"
         id="ID164862340"
         stroke-linejoin="round"
         stroke-linecap="round"
         d="M-618.9100000000008,589.839999999851 L-578.6600000000008,581.5899999989197 L-518.6400000000003,571.4499999992549 L-470.3800000000001,564.5699999993667 L-426.4900000000007,559.0499999998137 L-397.5700000000006,555.8799999989569 L-351.3600000000015,551.8999999994412 L-321.71000000000004,549.4499999992549 L-288.72000000000025,548.1899999994785 L-243.65999999999985,547.5499999988824 L-205.4399999999996,547.6399999996647 L-169.82999999999993,548.3700000001118 L-121.8700000000008,550.359999999404 L-83.94000000000051,553.1699999999255 L-49.05999999999949,556.4199999989942 L-11.420000000000073,560.2299999995157 L20.98999999999978,564.7499999990687">
      <title>164862340</title>
   </path>
   <path class="rail"
         id="ID164862342"
         stroke-linejoin="round"
         stroke-linecap="round"
         d="M51.039999999999054,571.839999999851 L121.55999999999949,580.4199999999255 L199.75,589.109999999404">
      <title>164862342</title>
   </path>
   <path class="rail"
         id="ID164862345"
         stroke-linejoin="round"
         stroke-linecap="round"
         d="M164.4999999999991,580.9199999989942 L93.07999999999902,572.4499999992549 L20.98999999999978,564.7499999990687">
      <title>164862345</title>
   </path>
   <path class="rail"
         id="ID164862347"
         stroke-linejoin="round"
         stroke-linecap="round"
         d="M1098.5599999999995,503.7399999992922 L1135.369999999999,495.61999999918044 L1168.869999999999,487.85999999940395 L1205.6899999999996,481.92999999877065">
      <title>164862347</title>
   </path>
   <path class="rail"
         id="ID164862348"
         stroke-linejoin="round"
         stroke-linecap="round"
         d="M2792.5600000000004,837.4699999997392 L2766.33,834.3099999995902 L2749.9700000000003,832.6200000001118 L2689.1400000000003,827.1899999994785 L2619.67,819.8999999994412 L2551.8999999999996,811.089999999851 L2488.8100000000004,801.9399999994785 L2447.3099999999995,794.1899999994785 L2400.08,785.0399999991059 L2358.0499999999993,776.6199999991804 L2316.88,768.2099999990314 L2275.49,758.7299999995157 L2224.95,745.9999999990687 L2188.459999999999,735.6599999992177 L2143.24,722.3399999989197 L2076.41,700.3099999995902 L2005.3400000000001,673.9599999990314 L1927.4399999999996,644.8999999994412 L1857.83,617.019999999553 L1781.8199999999997,587.3199999993667 L1705.8099999999995,557.4399999994785 L1632.7099999999991,529.019999999553 L1601.75,516.519999999553 L1567.8899999999994,502.7599999997765 L1539.8400000000001,492.2599999997765 L1515.8599999999997,484.3799999989569 L1488.5400000000009,476.68999999947846 L1461.0700000000006,469.62999999988824 L1436.3600000000006,463.9199999999255 L1407.8900000000003,457.3299999991432 L1375.039999999999,451.2999999988824 L1347.08,448.29000000003725 L1324.4799999999996,445.96999999973923 L1289.8999999999987,443.43999999947846 L1260.67,443.12999999988824 L1227.7200000000003,444.3999999994412 L1202.3000000000002,445.46999999973923 L1162.4099999999999,448.3799999989569 L1129.9699999999993,452.76999999955297 L1101.7799999999988,457.42999999877065 L1051.4700000000003,467.4099999992177 L1006.3199999999988,480.3999999994412 L977.54,490 L935.6899999999996,505.5699999993667 L882.7799999999997,525.5799999991432 L837.7300000000005,541.5099999997765 L800.5200000000004,555 L760.1199999999999,568.3399999989197 L712.4299999999994,580.7799999993294 L667.1300000000001,589.6899999994785 L609.9999999999991,597.6599999992177 L572.8499999999995,600.6799999987707 L551.409999999999,601.769999999553">
      <title>164862348</title>
   </path>
   <path class="rail"
         id="ID164862350"
         stroke-linejoin="round"
         stroke-linecap="round"
         d="M1737.4899999999998,421.1699999999255 L1775.1299999999992,410.2299999995157 L1826.1499999999996,392.60999999940395 L1854.5299999999997,381.1499999994412">
      <title>164862350</title>
   </path>
   <path class="rail"
         id="ID164862352"
         stroke-linejoin="round"
         stroke-linecap="round"
         d="M2046.2699999999995,276.929999999702 L2075.58,253.63999999966472 L2103.91,230.33999999891967 L2133.34,201.99999999906868 L2157.62,175.87999999988824">
      <title>164862352</title>
   </path>
   <path class="rail"
         id="ID164862353"
         stroke-linejoin="round"
         stroke-linecap="round"
         d="M1551.7699999999995,457.5799999991432 L1606.6499999999996,449.27999999932945 L1663.2999999999993,438.83999999891967 L1717.8499999999995,426.35999999940395">
      <title>164862353</title>
   </path>
   <path class="rail"
         id="ID164862357"
         stroke-linejoin="round"
         stroke-linecap="round"
         d="M649.6999999999998,597.0399999991059 L707.7600000000002,588.9799999995157 L747.8599999999997,583.0299999993294 L802.4499999999998,572.1299999998882 L843.8000000000002,562.5599999995902 L883.5999999999995,551.4899999992922 L939.9299999999994,534.7000000001863 L992.619999999999,520.3199999993667 L1027.4799999999996,512.4399999994785 L1063.0200000000004,505.51999999955297 L1084.62,501.34999999962747">
      <title>164862357</title>
   </path>
   <path class="rail"
         id="ID164862358"
         stroke-linejoin="round"
         stroke-linecap="round"
         d="M1874.5599999999995,372.2299999995157 L1897.8099999999995,362.68999999947846 L1923.75,350.79999999981374 L1953.5200000000004,336.78999999910593 L1983.1000000000004,319.9599999990314 L2003.88,307.00999999884516 L2025.5500000000002,292.12999999988824">
      <title>164862358</title>
   </path>
   <path class="rail"
         id="ID164862359"
         stroke-linejoin="round"
         stroke-linecap="round"
         d="M533.8499999999995,611.7499999990687 L495.7399999999998,611.7499999990687 L456.4899999999998,610.9099999992177 L393.4400000000005,610.4099999992177 L339.4900000000007,609.019999999553 L244.5,601.4099999992177 L202.4300000000003,596.089999999851">
      <title>164862359</title>
   </path>
   <path class="rail"
         id="ID175203132"
         stroke-linejoin="round"
         stroke-linecap="round"
         d="M533.8499999999995,611.7499999990687 L497.02999999999975,614.0299999993294 L459.40999999999985,618.1399999996647 L419.77999999999975,625.8499999996275 L352.5,646.8700000001118 L321.1300000000001,657.7999999998137 L299.3299999999999,665.8199999993667 L273.6999999999998,677.0999999986961 L247.8199999999997,690.0400000000373 L225,702.6699999999255 L210.16999999999916,712.6399999996647 L150.5599999999995,755.8999999994412 L124.34000000000015,785.1599999992177 L82.77999999999975,851.4899999992922 L65.27000000000044,916.3099999995902 L66.14999999999964,1005.5599999995902 L55.409999999999854,1096.3300000000745 L37.719999999999345,1142.5799999991432 L3.6599999999998545,1208.4199999989942 L-81.72000000000025,1317.6899999994785">
      <title>175203132</title>
   </path>
   <path class="rail"
         id="ID205367604"
         stroke-linejoin="round"
         stroke-linecap="round"
         d="M552.21,604.8899999996647 L606.5100000000002,601.7000000001863 L649.6999999999998,597.0399999991059">
      <title>205367604</title>
   </path>
   <path class="rail"
         id="ID205367605"
         stroke-linejoin="round"
         stroke-linecap="round"
         d="M553.8200000000006,610.6299999998882 L533.8499999999995,611.7499999990687">
      <title>205367605</title>
   </path>
   <path class="rail"
         id="ID236678088"
         stroke-linejoin="round"
         stroke-linecap="round"
         d="M2199.7799999999997,140.93999999947846 L2197.9699999999993,143.37000000011176 L2195.29,146.95999999996275 L2188.3899999999994,155.66999999899417 L2181.38,164.50999999977648">
      <title>236678088</title>
   </path>
   <path class="rail"
         id="ID236678091"
         stroke-linejoin="round"
         stroke-linecap="round"
         d="M2187.21,137.60999999940395 L2221.75,84.59999999962747 L2242.4699999999993,51.60999999940395 L2263.4399999999996,17.769999999552965 L2276.92,-3.0600000005215406 L2282.5699999999997,-12.320000000298023 L2309.669999999999,-54.87000000011176 L2336.41,-96.49000000022352 L2365.96,-142.32000000029802 L2380.0599999999995,-164.9300000006333 L2402.99,-201.36000000033528 L2429.1099999999997,-241.53000000026077 L2460.0699999999997,-290.23000000044703 L2485.99,-333.0900000007823 L2496.4699999999993,-350.0300000011921 L2519.16,-382.81000000052154 L2535.8099999999995,-408.23000000044703">
      <title>236678091</title>
   </path>
   <path class="rail"
         id="ID555909538"
         stroke-linejoin="round"
         stroke-linecap="round"
         d="M51.039999999999054,571.839999999851 L-8.550000000000182,563.5099999997765 L-56.9399999999996,558.6199999991804 L-101.27000000000044,554.7299999995157 L-134.70000000000073,553.1899999994785 L-170.15999999999985,551.2900000000373 L-201.1200000000008,550.2000000001863 L-250.09000000000015,550.75 L-290.0600000000004,551.3799999989569 L-322.02999999999975,553.0999999996275 L-374.78999999999996,557.5399999991059 L-421.4399999999996,561.6999999992549 L-481.7600000000011,569.3999999994412 L-549.0500000000002,580.3499999996275 L-617.21,593.0299999993294">
      <title>555909538</title>
   </path>
   <path class="rail"
         id="ID555909539"
         stroke-linejoin="round"
         stroke-linecap="round"
         d="M20.98999999999978,564.7499999990687 L121.55999999999949,580.4199999999255 L166.90000000000055,587.6599999992177 L202.8100000000004,592.8299999991432 L248.71000000000004,598.9499999992549 L284.91999999999916,602.519999999553 L338.579999999999,605.5299999993294 L393.71000000000004,606.2799999993294 L454.8899999999994,606.9699999997392 L496.0699999999997,606.839999999851 L539.0500000000002,605.5800000000745">
      <title>555909539</title>
   </path>
   <rect x="-100"
         y="-100"
         width="2414.3999999999996"
         height="1615.5999999996275"
         class="frame"/>
   <rect x="0"
         y="0"
         width="2214.3999999999996"
         height="1415.5999999996275"
         class="border"/>
   <text transform="scale(3.3,2) translate(0, 1515.5999999996275)" class="title">P E C K H A M</text>
   <script>
        
          const reg = /(?:M|L)([-\d.]+),([-\d.]+)/;
          document.querySelectorAll('.rail').forEach(way =&gt; {
            const path = way.getAttribute('d').split(' ').map(p =&gt; {
              const m = p.match(reg);
              return {x:parseFloat(m[1],10), y:parseFloat(m[2],10)};
            });
            let beziers = [`M${path[0].x},${path[0].y}`];
            beziers.push(` Q${(path[0].x+path[1].x)/2},${(path[0].y+path[1].y)/2}`);
            beziers.push(` ${path[1].x},${path[1].y}`);
            for (i=2; i&lt;path.length; i++) {
              beziers.push(` T${path[i].x},${path[i].y}`);
            }
            way.setAttribute('d', beziers.join(''));
          });

          document.querySelectorAll('.way').forEach(way =&gt; {
            const path = way.getAttribute('d').split(' ').map(p =&gt; {
              const m = p.match(reg);
              return {x:parseFloat(m[1],10), y:parseFloat(m[2],10)};
            });
            const s = i =&gt; `${path[i].x},${path[i].y}`;
            const m = (i, j) =&gt; `${(path[i].x+path[j].x)/2},${(path[i].y+path[j].y)/2}`;

            let beziers = [`M${s(0)}`];
            beziers.push(` L${m(0,1)}`);
            let i=1;
            for (i=1; i&lt;path.length-1; i++) {
              beziers.push(` Q${s(i)} ${m(i,i+1)}`);
            }
            beziers.push(` L${s(i)}`);

            way.setAttribute('d', beziers.join(''));
          });

        
      </script>
</svg>
